<svg width="41" height="55" viewBox="0 0 41 55" fill="none" xmlns="http://www.w3.org/2000/svg">
<path d="M10.3936 34.9636C11.2536 35.2568 12.0442 35.6917 12.7773 36.2107C13.4802 36.7086 14.1047 37.2833 14.6816 37.9055C14.9574 38.2033 15.2212 38.5103 15.464 38.8291C15.9187 39.4276 16.3322 40.0497 16.6737 40.7112C17.2452 41.8176 17.6478 42.9715 17.7317 44.1867C17.8166 45.4082 17.4652 46.5183 17.3282 46.9796C17.2059 47.3908 16.9402 47.695 16.5915 47.9545C15.8593 48.499 15.0057 48.7841 14.0864 48.9275C13.4674 49.0244 12.8412 49.0563 12.2103 49.0326C11.5357 49.007 10.316 48.7283 10.2229 48.7028C9.54276 48.52 8.91466 48.2331 8.324 47.8677C7.6393 47.4438 7.04407 46.9248 6.51457 46.3438C5.85726 45.622 5.32776 44.8244 4.88864 43.9747C4.42213 43.0711 4.109 42.1219 3.82873 41.1616C3.61419 40.4271 3.40786 39.6898 3.11025 38.9762C2.85554 38.365 2.47668 37.8278 2.00834 37.3408C1.83306 37.1581 1.62856 37.0028 1.43776 36.8356C1.1018 36.5405 0.728413 36.1549 1.0096 35.7813C1.21501 35.5081 1.65869 35.118 2.09964 34.917C3.13672 34.4437 4.2432 34.1851 5.40536 34.1879C7.75524 34.1934 9.00778 34.4894 10.3945 34.9626L10.3936 34.9636Z" fill="url(#paint0_linear_10467_2583)"/>
<path d="M10.4968 35.0428C10.7798 35.5654 11.0655 36.0771 11.3403 36.5933C11.5421 36.9733 11.7393 37.358 11.8452 37.7718C11.9438 38.1565 11.8023 38.3739 11.3915 38.4653C11.0035 38.5521 9.7847 38.5393 9.22142 38.4945C9.20316 38.4927 9.18491 38.4964 9.15569 38.4973C9.2762 38.7522 9.39853 38.9961 9.50808 39.2437C9.68337 39.6384 9.85774 40.0349 9.95633 40.4524C9.98646 40.5822 10.0038 40.7119 9.99011 40.8444C9.93625 41.3725 9.31363 41.3295 8.82978 41.3195C8.03279 41.303 7.23671 41.2601 6.44155 41.1952C6.3603 41.1888 6.34387 41.2071 6.34752 41.282C6.3813 41.927 6.41142 42.5721 6.44064 43.2171C6.45068 43.451 6.45159 43.684 6.4242 43.916C6.38038 44.286 6.17132 44.4806 5.77328 44.5282C5.59526 44.5492 5.39442 44.5574 5.21 44.5199C5.10593 44.4989 4.8001 43.821 4.61569 43.4126C4.28795 42.689 4.0588 41.9389 3.83513 41.187C3.61603 40.4497 3.41153 39.7087 3.11392 38.9906C2.86103 38.3794 2.48491 37.8395 2.01657 37.3516C1.83855 37.1661 1.62767 37.0117 1.43778 36.8372C1.33644 36.744 0.836155 36.3566 0.883627 36.0798C0.893669 36.0195 0.942967 35.4914 1.87051 35.0273C2.92038 34.502 4.0588 34.2461 5.26113 34.1968C6.68256 34.1383 7.72787 34.3101 8.20077 34.4024C8.30575 34.4234 8.87268 34.5202 9.26981 34.607C9.65598 34.692 10.0239 34.8263 10.3927 34.9597C10.4338 34.9743 10.4712 34.9953 10.4959 35.0428H10.4968Z" fill="url(#paint1_linear_10467_2583)"/>
<path d="M29.9742 47.0634C29.7514 47.195 29.5122 47.2936 29.2876 47.4215C28.235 48.0218 27.1541 48.559 25.9262 48.7664C25.7793 48.7911 25.6378 48.8395 25.4935 48.8769C25.4616 48.8852 25.4296 48.8952 25.3986 48.9053C25.0343 49.0231 24.3806 48.8514 24.9877 49.7805C25.2142 50.1286 25.3584 50.5014 25.404 50.9089C25.4205 51.0532 25.4396 51.1985 25.4579 51.3428C25.5319 51.9129 25.6359 52.4757 25.8651 53.012C25.9847 53.2907 26.1545 53.5337 26.4037 53.7183C26.6611 53.9092 26.935 54.0783 27.2445 54.1861C28.1748 54.5104 29.7596 54.4428 30.6315 54.3514C30.8342 54.3304 31.0386 54.2856 31.2313 54.2217C32.1351 53.9211 32.0812 53.1655 31.8119 52.611C31.6531 52.2839 31.412 52.0134 31.1245 51.7832C31.0496 51.7229 30.9976 51.6571 30.9729 51.5676C30.7976 50.9308 30.6196 50.2949 30.4471 49.6572C30.3512 49.3009 30.3238 48.9372 30.3686 48.5727C30.4206 48.1424 30.4909 47.7139 30.5584 47.2854C30.584 47.12 30.5265 47.0104 30.3622 46.9474C30.3302 46.9355 30.0801 46.9994 29.9742 47.0616V47.0634Z" fill="#402F2A"/>
<path d="M22.6753 49.3073C22.6781 49.2808 22.5393 49.0743 22.3887 49.1346C22.3202 49.162 22.2472 49.1857 22.175 49.194C21.7377 49.2415 21.2986 49.2323 20.8622 49.1857C19.3723 49.0295 16.6372 48.1186 16.5623 48.1396C16.3998 48.1853 16.4866 49.0688 16.513 49.2049C16.6408 49.8792 16.7148 50.4594 16.8006 51.0824C16.8463 51.4123 16.8097 51.7412 16.7111 52.0619C16.5441 52.6064 16.5742 53.129 16.8965 53.6178C17.132 53.975 17.4835 54.1797 17.8824 54.3204C18.4923 54.5351 19.1268 54.6109 19.7704 54.642C19.8105 54.6438 20.8294 54.6849 21.5579 54.4327C22.1002 54.2454 22.4772 53.8718 22.5274 53.2706C22.5375 53.1473 22.5466 53.0221 22.5356 52.9006C22.5009 52.5022 22.4617 52.1039 22.3412 51.7183C22.3339 51.6946 22.333 51.6681 22.3348 51.6434C22.3457 51.479 22.3476 51.3127 22.3713 51.1501C22.4434 50.6667 22.5229 50.1834 22.6014 49.701C22.6224 49.5695 22.6625 49.4407 22.6744 49.3073H22.6753Z" fill="#3F2F2A"/>
<path d="M30.2307 54.388C30.1166 53.9522 29.6547 53.193 29.3516 52.918C29.242 52.8184 29.0722 52.8275 28.9608 52.9253C28.8467 53.0248 28.8211 53.1792 28.9106 53.3017C29.0476 53.489 29.2055 53.6626 29.3287 53.8572C29.4401 54.0335 29.5168 54.2318 29.609 54.4282C29.8135 54.4181 30.0171 54.409 30.2298 54.388H30.2307Z" fill="#754E53"/>
<path d="M31.8365 53.8042C31.7982 53.5831 31.6686 53.3684 31.5471 53.1902C31.4212 53.0048 31.2924 52.8193 31.1473 52.6475C31.0323 52.5105 30.8898 52.4374 30.7182 52.5233C30.5493 52.6082 30.5055 52.8065 30.6178 52.9554C30.7575 53.14 30.8962 53.3254 31.0323 53.5127C31.1856 53.7238 31.2486 53.9458 31.2605 54.2117C31.5006 54.1358 31.6759 54.0362 31.8365 53.8042Z" fill="#754E53"/>
<path d="M18.0321 54.3697C18.0102 53.9568 18.1408 53.5091 18.3644 53.1656C18.4575 53.0231 18.4155 52.8449 18.274 52.7544C18.1471 52.6731 17.9518 52.7142 17.8605 52.8449C17.5966 53.2222 17.436 53.6443 17.4351 54.1176C17.6295 54.2428 17.8267 54.3131 18.0321 54.3697Z" fill="#754E53"/>
<path d="M20.3921 54.6457C20.4551 54.3332 20.5235 53.9933 20.5637 53.6836C20.5874 53.5009 20.4834 53.1976 20.1921 53.2314C20.0378 53.2496 19.9694 53.3629 19.9612 53.5055C19.9356 53.9696 19.764 54.5305 19.7147 54.6457C19.9383 54.6502 20.1593 54.6521 20.3921 54.6457Z" fill="#754E53"/>
<path d="M33.5666 45.2079C35.0601 45.1293 36.2396 44.4651 36.1027 43.0937C35.9411 41.4839 34.2211 39.5927 33.5401 37.6969C32.8819 35.866 31.8539 33.5079 29.808 33.2996C26.5105 32.9634 28.1091 38.1364 29.1854 40.0066C30.2508 41.8576 30.8415 44.7145 33.1256 45.1914C33.2653 45.2206 33.4169 45.2161 33.5675 45.2079H33.5666Z" fill="#DDD5E5"/>
<path d="M36.1319 43.2399C36.1082 42.7813 35.8845 42.033 35.6033 41.4802C35.3696 41.0207 35.1432 40.5575 34.8958 40.1043C34.6849 39.7178 34.4484 39.3442 34.222 38.9659C34.1244 38.8024 33.9016 38.8517 33.7647 38.849C33.4205 38.8426 33.1156 38.9285 32.7951 39.05C31.9771 39.3606 31.423 39.9554 30.9674 40.6507C29.9541 42.1974 30.5311 42.9631 30.6835 43.1933C31.0341 43.7214 31.4358 44.2348 31.9251 44.635C32.9732 45.4929 34.1965 45.143 34.3526 45.1064C34.4019 45.0946 34.4558 45.08 34.5041 45.0873C34.778 45.1265 35.0318 45.069 35.2692 44.9393C35.7348 44.6853 36.1629 43.8328 36.1319 43.2399Z" fill="#3F2F2A"/>
<path d="M35.2034 42.3263C35.1733 42.5337 35.0363 42.7054 34.8583 42.7265C34.6757 42.7484 34.5023 42.636 34.4064 42.4341C34.2941 42.1975 34.3024 41.9764 34.4621 41.7754C34.5854 41.621 34.8529 41.5406 35.0227 41.716C35.1569 41.8549 35.2436 42.0449 35.2025 42.3263H35.2034Z" fill="#7D5759"/>
<path d="M33.698 42.5757C33.394 42.8443 33.0407 42.9457 32.649 42.9348C32.1451 42.921 31.7936 42.5812 31.7708 42.0741C31.7498 41.6219 31.8767 41.2244 32.2309 40.9357C32.5258 40.6964 32.8727 40.6607 33.2351 40.7576C33.6113 40.8581 33.9098 41.081 34.0833 41.4492C34.1983 41.694 34.1873 41.9316 34.0531 42.1563C33.9591 42.3135 33.8422 42.4487 33.698 42.5757Z" fill="#7D5759"/>
<path d="M33.6487 43.5642C33.7172 43.8274 33.603 44.0494 33.4113 44.1517C33.226 44.2504 33.0407 44.2257 32.8663 44.0996C32.6673 43.9562 32.5751 43.7159 32.6244 43.4966C32.6691 43.2965 32.8334 43.1568 33.0452 43.1376C33.2543 43.1184 33.5044 43.2582 33.604 43.4509C33.6213 43.4838 33.6368 43.5195 33.6487 43.5651V43.5642Z" fill="#7D5759"/>
<path d="M34.4594 43.7104C34.2019 43.8785 33.9244 43.8064 33.7929 43.6035C33.6414 43.3696 33.6816 42.9987 33.8842 42.8406C34.0568 42.7054 34.3909 42.7666 34.5653 42.9658C34.7387 43.1632 34.7333 43.45 34.5516 43.6364C34.5269 43.662 34.4986 43.6848 34.4594 43.7104Z" fill="#7D5759"/>
<path d="M32.2848 43.7561C32.0794 43.8685 31.8548 43.7835 31.6969 43.6062C31.5353 43.4253 31.4878 43.1576 31.5846 42.9731C31.685 42.7812 31.8731 42.7401 32.0547 42.8735C32.178 42.9649 32.314 43.0407 32.3962 43.1823C32.5276 43.4089 32.5167 43.63 32.2848 43.7561Z" fill="#7D5759"/>
<path d="M31.7918 44.8104C31.8137 44.3956 31.8192 43.8657 31.7845 43.5532C31.3901 39.9965 29.2959 31.5299 29.011 31.496C27.9228 31.3663 26.8547 31.3115 25.7765 31.3974C22.794 31.6185 19.7749 31.8907 16.7914 31.6075C15.8676 35.7189 13.346 42.7593 15.2294 46.7455C16.4034 49.2525 19.4033 49.2927 21.745 49.3941C24.3021 49.5046 26.8903 49.1767 29.4209 48.5271C31.0332 48.1132 31.7115 46.3279 31.7918 44.8104Z" fill="url(#paint2_linear_10467_2583)"/>
<path d="M31.7918 44.8104C31.8137 44.3956 31.8192 43.8657 31.7845 43.5532C31.3901 39.9965 29.2959 31.5299 29.011 31.496C27.9228 31.3663 26.8547 31.3115 25.7765 31.3974C22.794 31.6185 19.7749 31.8907 16.7914 31.6075C15.8676 35.7189 13.346 42.7593 15.2294 46.7455C16.4034 49.2525 19.4033 49.2927 21.745 49.3941C24.3021 49.5046 26.8903 49.1767 29.4209 48.5271C31.0332 48.1132 31.7115 46.3279 31.7918 44.8104Z" fill="url(#paint3_radial_10467_2583)"/>
<path d="M26.4348 42.0376C26.2704 42.0266 25.6222 41.8822 24.7157 41.0801C23.9899 40.4378 23.2934 39.7654 22.6461 39.0427C22.4033 38.7713 22.1686 38.4918 21.9495 38.2003C21.7715 37.9637 21.5962 37.7243 21.4209 37.4858C21.3844 37.4356 21.3488 37.3954 21.284 37.4502C20.9827 37.7005 20.6687 37.6439 20.361 37.4721C20.0342 37.2894 19.7539 37.0427 19.4828 36.786C19.0126 36.3402 18.5808 35.8605 18.2184 35.3233C17.7044 34.5595 17.3958 33.7262 17.3922 32.7934C17.3894 32.0516 17.771 31.8469 18.0796 31.9374C18.3882 32.0278 18.6831 32.1438 18.9898 32.2334C19.565 32.4006 20.1538 32.4855 20.7481 32.5376C21.9541 32.6436 23.1455 32.5093 24.3295 32.2982C25.1822 32.1466 26.0267 31.9529 26.8757 31.7839C27.3942 31.6806 27.9164 31.6039 28.4459 31.5984C28.6176 31.5966 28.7865 31.6286 28.9526 31.666C29.1982 31.7227 29.3607 31.888 29.4876 32.0972C30.1385 33.1735 30.5959 34.3192 30.7237 35.5818C30.7903 36.2406 30.6525 37.474 30.5073 37.9299C30.3101 38.5493 30.0299 39.1212 29.5798 39.6C29.3936 39.7982 29.1891 39.9718 28.9362 40.0806C28.6797 40.1911 28.4359 40.2002 28.2141 40.0011C28.131 39.9262 28.1145 40.0002 28.0926 40.0568C27.9283 40.4835 27.7311 40.8937 27.5001 41.2884C27.4116 41.4391 27.3093 41.5807 27.1861 41.7068C26.9825 41.916 26.7506 42.0604 26.4357 42.0394L26.4348 42.0376Z" fill="url(#paint4_linear_10467_2583)"/>
<path d="M14.5949 33.2448C14.3265 33.5828 14.1083 33.9465 13.9212 34.3293C13.6327 34.9204 13.44 35.5435 13.2712 36.173C13.0566 36.9733 12.8612 37.7782 12.644 38.5777C12.5463 38.9376 12.4303 39.2939 12.298 39.6439C12.0688 40.2478 11.8178 40.8444 11.6763 41.4739C11.2399 43.4162 11.8935 45.1028 13.8189 44.4313C14.1028 44.3326 14.5803 44.1663 14.9254 43.9525C15.3143 43.7113 15.6585 43.419 15.9789 43.101C16.3715 42.7109 16.6828 42.2605 16.9567 41.79C17.31 41.1833 17.6432 40.5657 17.9773 39.949C18.2384 39.4657 18.4566 38.9641 18.6027 38.437C18.7058 38.0642 18.8227 37.6914 18.8738 37.3077C19.0683 35.8422 19.0454 34.8235 18.6602 33.9264C18.1608 32.7615 17.645 32.6034 17.2159 32.4591C15.7552 31.9694 14.7775 33.0127 14.594 33.2448H14.5949Z" fill="#E9E4ED"/>
<path d="M12.6942 45.3203C13.5971 45.2152 14.3977 44.9201 15.0094 44.2915C15.7616 43.5186 16.4262 42.6561 16.9959 41.7397C16.2692 41.8741 13.8874 42.0577 12.7252 40.6836C12.5764 40.5082 12.3317 40.0824 12.2395 39.7992C12.1108 40.1784 11.6671 41.5324 11.3796 42.6031C11.1997 43.2737 11.0354 43.6812 11.1084 44.2349C11.1385 44.4587 11.2125 44.6561 11.3631 44.8443C11.5886 45.1257 11.8999 45.2764 12.2815 45.3148C12.3254 45.3194 12.6732 45.3239 12.6951 45.3212L12.6942 45.3203Z" fill="#402F2A"/>
<path d="M13.2994 45.2161C13.4017 44.8854 13.5331 44.4807 13.639 44.1371C13.7102 43.9078 13.6253 43.6876 13.3989 43.6767C13.2885 43.6712 13.1716 43.7479 13.1296 43.8777C12.9717 44.3582 12.8293 44.8388 12.675 45.3212C12.675 45.3258 13.1123 45.2783 13.2994 45.2161Z" fill="#754F54"/>
<path d="M11.7465 45.1613C11.8387 44.8635 11.9254 44.5565 12.0149 44.2586C12.0834 44.032 12.1537 43.8064 12.2322 43.5835C12.3016 43.3879 12.2431 43.2052 12.0779 43.1413C11.9848 43.1047 11.8743 43.1422 11.8058 43.2217C11.6744 43.3742 11.626 43.567 11.5712 43.7561C11.4973 44.0101 11.4325 44.2669 11.3631 44.5218C11.3539 44.5565 11.3037 44.7529 11.3056 44.7657C11.4407 44.9703 11.542 45.0407 11.7474 45.1613H11.7465Z" fill="#754E53"/>
<path d="M35.9562 28.7355C35.9946 28.8972 36.0219 29.0434 36.0356 29.1896C36.1069 29.9451 35.9343 30.6386 35.5061 31.2662C35.3254 31.5321 35.1017 31.7623 34.8607 31.9661C34.5503 32.2292 34.2217 32.4722 33.8693 32.6778C33.4557 32.919 33.0284 33.131 32.5857 33.3119C32.0224 33.5421 31.4454 33.7257 30.8584 33.882C30.265 34.04 29.6661 34.167 29.0636 34.2849C28.4373 34.4082 27.8065 34.4758 27.1747 34.5489C26.4079 34.6375 25.6374 34.664 24.8678 34.6869C24.4113 34.7006 23.9548 34.7033 23.4975 34.6805C23.0328 34.6567 22.569 34.6412 22.1052 34.5992C21.625 34.5553 21.1467 34.506 20.6683 34.4557C20.3396 34.421 20.0128 34.3835 19.6878 34.3306C19.1163 34.2365 18.5585 34.0866 18.0126 33.8938C17.5205 33.7193 17.0403 33.5183 16.5811 33.2607C15.6572 32.7427 14.8447 32.0848 14.118 31.3101C13.8286 31.0022 13.5657 30.6715 13.3192 30.3298C12.8271 29.6473 12.4382 28.9045 12.1789 28.095C12.0466 27.6821 11.9288 27.2645 11.8329 26.8406C11.7855 26.6332 11.8037 26.4322 11.9671 26.2924C13.4972 24.9777 14.789 19.802 14.9908 19.1149C15.0757 18.8244 15.1487 18.5311 15.2436 18.2433C15.3614 17.8861 15.4673 17.5252 15.586 17.168C15.7339 16.7267 15.901 16.2909 16.0388 15.8469C16.1739 15.4138 16.8988 12.704 18.1459 10.9525C18.3604 10.652 18.5996 10.3687 18.8844 10.1394C19.2341 9.85984 19.6248 9.69265 20.0886 9.7027C20.755 9.71823 21.2516 10.0426 21.646 10.5442C22.1682 11.2084 22.5398 11.9603 22.7835 12.7771C22.8301 12.9315 22.8949 13.0804 22.9515 13.2302C23.0218 13.2065 23.4545 11.6149 24.5208 10.5451C25.2412 9.82239 26.0582 9.96765 26.7767 10.525C27.0579 10.7433 27.3117 10.9937 27.5463 11.2641C27.8713 11.6405 28.1507 12.0526 28.42 12.4701C28.7331 12.9543 29.0189 13.4559 29.2699 13.9785C29.7547 14.9881 30.1472 16.0378 30.5124 17.0958C30.747 17.7755 30.9862 18.4571 31.1387 19.1661C31.1779 19.3506 31.2482 19.527 31.2948 19.7106C31.3395 19.8842 31.481 19.9774 31.5924 20.0889C32.1 20.5978 32.5126 21.1733 32.8568 21.8101C33.191 22.4287 33.3827 23.0911 33.516 23.779C33.652 24.4807 33.7323 25.1915 33.7205 25.9032C33.7141 26.2842 33.8629 26.4267 34.1678 26.5574C34.6343 26.7565 34.931 27.0233 35.2396 27.3687C35.5901 27.7615 35.8321 28.2111 35.9571 28.7364L35.9562 28.7355Z" fill="url(#paint5_linear_10467_2583)"/>
<path d="M12.2448 25.9973C12.84 26.4888 13.5293 26.7593 14.2313 27.0343C15.2209 27.4208 16.7327 27.6985 17.5516 27.8374C18.0528 27.9223 18.554 27.9945 19.058 28.0438C19.5537 28.0923 20.0467 28.1663 20.5424 28.1955C20.9907 28.222 21.3768 28.2567 21.8853 28.2869C21.9648 28.2914 22.0478 28.3033 22.1227 28.3298C22.4039 28.4285 22.4532 28.6834 22.2468 28.9045C22.0707 29.0936 21.8561 29.2243 21.6315 29.333C20.8263 29.7213 19.9928 30.0337 19.1365 30.2777C18.2163 30.5408 17.2741 30.6596 16.3238 30.687C15.8116 30.7016 15.2976 30.6952 14.7855 30.6788C14.4011 30.6669 14.0177 30.6239 13.6123 30.5938C13.4097 30.5783 13.2444 30.2539 13.0975 30.0155C12.7168 29.4006 12.3899 28.7601 12.1654 28.0639C12.0302 27.6437 11.9116 27.2225 11.8285 26.7885C11.7929 26.6031 11.8312 26.4486 11.9545 26.3116C12.0467 26.2093 12.138 26.106 12.2448 25.9973Z" fill="#CFC6DC"/>
<path d="M14.6804 31.8437C15.5961 31.6399 16.5227 31.5522 17.4731 31.6509C17.5288 31.6564 18.8534 31.8117 19.477 31.9524C19.9891 32.0684 20.5031 32.1707 21.0216 32.2374C22.4029 32.4147 23.7842 32.4293 25.1517 32.0995C26.093 31.8729 26.9749 31.4819 27.8294 31.0232C28.3963 30.719 28.9231 30.3508 29.4516 29.9844C29.9994 29.6034 30.5435 29.2179 31.1561 28.9447C31.7185 28.6935 32.2945 28.5263 32.9107 28.5281C33.244 28.529 33.5681 28.5911 33.8848 28.6871C34.1697 28.7739 34.4518 28.8716 34.7202 29.0041C35.1228 29.2033 35.5829 29.1622 36.0101 29.0077C36.0604 29.2599 36.064 29.4627 36.0494 29.6902C35.9864 30.6651 35.5199 31.417 34.7923 32.0255C33.9725 32.7116 33.0386 33.173 32.0453 33.5202C30.4157 34.0903 28.735 34.4037 27.0269 34.5672C25.9104 34.6741 24.7911 34.7161 23.671 34.6905C22.9233 34.6741 22.1765 34.6184 21.4316 34.538C20.7423 34.464 20.0512 34.4101 19.372 34.2675C18.3112 34.0446 17.2923 33.6983 16.3538 33.1346C15.7504 32.7719 15.1844 32.3589 14.6795 31.8437H14.6804Z" fill="#FBFBFD"/>
<path d="M17.6894 18.0954C17.6073 18.131 17.547 18.1776 17.4685 18.173C17.4073 18.1264 17.4439 18.0679 17.4566 18.0168C17.7479 16.8775 18.0272 15.7345 18.3385 14.6007C18.5522 13.8232 18.8251 13.0631 19.2177 12.355C19.3902 12.0444 19.5902 11.7557 19.8841 11.5474C20.2721 11.2733 20.6702 11.2687 21.0545 11.5446C21.3293 11.742 21.5256 12.0106 21.699 12.3002C22.0834 12.9425 22.3417 13.6405 22.5691 14.3522C22.7644 14.9616 22.926 15.5801 23.0283 16.2142C23.0374 16.2708 23.0392 16.3293 23.0511 16.385C23.0785 16.5166 23.0146 16.5668 22.8968 16.5751C22.8165 16.5815 22.7361 16.5924 22.6558 16.597C20.9942 16.692 19.4267 17.1296 17.9642 17.9547C17.8793 18.0022 17.7908 18.0433 17.6876 18.0954H17.6894Z" fill="url(#paint6_linear_10467_2583)"/>
<path d="M24.9518 12.6565C25.0294 12.407 25.128 12.1905 25.2787 12.0014C25.5817 11.6195 26.009 11.529 26.4253 11.7648C26.5732 11.8488 26.7056 11.9566 26.8306 12.0736C27.2634 12.4783 27.5829 12.9717 27.8705 13.4851C28.5351 14.6747 29.0189 15.9437 29.4142 17.2511C29.469 17.432 29.5183 17.6147 29.5338 17.8039C29.553 18.0341 29.4562 18.1227 29.2326 18.0908C28.9888 18.056 28.7724 17.9409 28.5515 17.845C27.5044 17.39 26.4216 17.0465 25.3152 16.776C25.2367 16.7568 25.1563 16.7459 25.0778 16.7304C24.8249 16.681 24.7848 16.6454 24.7574 16.3795C24.7263 16.0853 24.6889 15.7911 24.6907 15.4942C24.6935 14.9762 24.6862 14.4582 24.719 13.9401C24.7464 13.5098 24.8185 13.0886 24.9527 12.6583L24.9518 12.6565Z" fill="url(#paint7_linear_10467_2583)"/>
<path d="M30.7919 30.8752C30.4669 30.7857 30.1775 30.6669 29.9072 30.4997C29.8862 30.4869 29.8671 30.4732 29.847 30.4586C29.6124 30.2914 29.553 30.1068 29.6744 29.9241C29.7876 29.7533 29.9602 29.7533 30.2058 29.9004C30.864 30.2941 31.5587 30.4522 32.3101 30.1936C32.4406 30.1489 32.5648 30.0895 32.6835 30.0182C32.7455 29.9808 32.8113 29.9479 32.887 29.946C33.0222 29.9424 33.1454 30.0146 33.1965 30.1388C33.2476 30.264 33.223 30.3818 33.1381 30.4833C33.0687 30.5664 32.9747 30.6176 32.8806 30.6651C32.216 30.9986 31.5286 31.078 30.7928 30.8752H30.7919Z" fill="#775147"/>
<path d="M32.405 28.0036C32.6853 27.481 33.5416 27.2928 34.0346 27.5514C34.1587 27.6163 34.2528 27.6967 34.323 27.8355C34.5038 28.1955 34.481 28.5856 34.2655 28.9447C34.156 29.1265 33.9898 29.2352 33.7835 29.227C33.2741 29.206 32.8213 29.0415 32.4944 28.6185C32.3566 28.4404 32.2826 28.2311 32.405 28.0027V28.0036Z" fill="#413532"/>
<path d="M23.0401 26.1709C22.7434 25.6784 22.7791 25.1047 22.9123 24.5611C23.0173 24.1335 23.3295 23.8722 23.7385 23.8411C24.1366 23.8101 24.4771 24.012 24.6396 24.4112C24.8532 24.9357 24.8843 25.4848 24.7254 26.0302C24.6177 26.4011 24.3557 26.6259 23.9704 26.6725C23.5569 26.7227 23.2127 26.4587 23.0392 26.1718L23.0401 26.1709Z" fill="#41312C"/>
<path d="M30.2441 23.9535C30.6065 23.6785 31.0365 23.7534 31.3159 24.0869C31.4711 24.2724 31.5697 24.488 31.6062 24.7264C31.6719 25.1604 31.6637 25.5907 31.5076 26.0119C31.2748 26.6405 30.5572 26.7748 30.1336 26.2604C30.0195 26.1216 29.9337 25.9672 29.8889 25.7872C29.784 25.3651 29.7867 24.943 29.8917 24.5218C29.9465 24.3016 30.0496 24.1024 30.245 23.9544L30.2441 23.9535Z" fill="#42312C"/>
<path d="M24.2927 21.9801C24.6962 21.3816 25.6447 21.7179 25.8419 22.3629C25.9323 22.6589 25.8921 22.954 25.6968 23.2025C25.5653 23.3697 25.359 23.4327 25.1636 23.4273C24.7975 23.4163 24.5008 23.2473 24.2826 22.9385C24.1064 22.689 24.0909 22.4268 24.2069 22.15C24.2288 22.097 24.2498 22.0431 24.2927 21.9801Z" fill="#C3BACE"/>
<path d="M29.0226 22.5849C29.0436 22.2569 29.1376 21.9618 29.3713 21.7453C29.804 21.3442 30.2742 21.42 30.5417 21.9079C30.622 22.055 30.6521 22.2231 30.6366 22.3848C30.6019 22.7356 30.4559 23.0445 30.1509 23.2263C29.6781 23.5086 28.9842 23.176 29.0226 22.584V22.5849Z" fill="#C3BACE"/>
<path d="M20.1654 8.62577C20.8051 8.81472 21.1389 8.79111 21.7229 8.88559C22.8642 9.0702 22.8353 9.05091 23.8366 9.31071C25.1232 9.64456 24.5597 9.40518 25.839 9.8303C27.1184 10.2554 27.5077 10.5152 27.8693 10.7042C28.2309 10.8931 28.8705 11.4363 29.093 11.6253C29.3155 11.8142 29.7327 12.0976 30.1499 12.57C30.5671 13.0423 31.0677 13.5856 31.1511 13.7509C31.2345 13.9162 31.7073 14.4122 31.763 14.5775C31.8186 14.7429 32.306 15.5036 32.4583 15.782C32.8198 16.4433 33.0145 16.8921 33.0145 16.8921L33.5985 18.0258L34.0713 18.8051L34.7194 20.1058L29.983 19.6318L25.5609 19.6554L20.7216 19.4192L16.5499 19.2303L13.4072 19.2539C14.0555 17.62 14.2211 15.948 14.4084 14.2469L14.5196 12.2394L15.048 10.4208L15.6321 8.93284L16.1883 8.15345L16.5221 7.39767L16.8836 6.80722C16.8836 6.80722 17.3842 6.57104 17.4955 6.57104C17.6067 6.57104 18.2742 7.13787 18.2742 7.13787L18.2464 7.68109L18.4967 8.12982L19.4145 8.57857L20.1654 8.62577Z" fill="url(#paint8_linear_10467_2583)"/>
<path d="M7.0051 0.308716C7.9374 1.97628 8.68996 2.98503 8.68996 2.98503C8.68996 2.98503 9.46017 4.11948 9.56936 4.27556C9.67854 4.43164 10.8872 5.89139 10.8872 5.89139C10.8872 5.89139 12.0295 7.1893 12.2361 7.41767C12.4427 7.64604 13.6455 9.06391 13.6455 9.06391L14.8541 10.5236L16.3021 11.8232L17.3722 12.9174L19.5552 15.1001L17.4485 15.6389L15.5998 14.9053L14.7036 14.428L14.5474 13.9367L15.0262 13.6164L13.9158 13.1679L13.1052 12.6791L12.4425 11.9997L12.3233 11.4608L12.6736 11.1577L12.9869 10.9023L12.3829 10.6419L11.4985 10.2484L11.0542 9.88115L10.6409 9.42443L10.5897 8.74836L10.9165 8.27769L11.1013 8.03948L10.3126 8.01727L9.66583 7.76259L9.02665 7.25081L8.61508 6.49508L8.58148 5.9447L8.97459 5.63585L8.32784 5.38117L7.98684 5.12816L7.84828 4.76261L7.96082 4.32069L8.20191 3.8615L7.50056 3.52879L7.00164 3.08354L6.79672 2.55618L6.79414 1.91626L6.81087 1.10304L7.0051 0.308716Z" fill="url(#paint9_linear_10467_2583)"/>
<path d="M18.6025 16.4953C17.8622 16.4953 17.2621 15.8989 17.2621 15.1633C17.2621 14.4276 17.8622 13.8312 18.6025 13.8312C19.3428 13.8312 19.9429 14.4276 19.9429 15.1633C19.9429 15.8989 19.3428 16.4953 18.6025 16.4953Z" fill="url(#paint10_linear_10467_2583)"/>
<path d="M11.6036 17.4163C12.1225 21.4758 11.7198 21.3459 11.7198 21.3459L16.1153 21.2468L22.1688 20.8291L25.7197 21.0683L29.1482 21.3818L32.6938 21.8944L35.614 22.3172L39.205 22.4505C39.205 22.4505 39.6961 22.4086 40.1424 22.2258C41.5626 21.6442 40.497 21.058 40.497 21.058L33.584 19.4904L30.2978 18.7293L25.455 18.1373L20.3833 17.2462L16.3599 16.1861L12.9619 15.3053L11.2166 14.7526L11.6036 17.4163Z" fill="url(#paint11_linear_10467_2583)"/>
<path d="M31.2852 33.7416L31.7902 33.8426L32.2248 34.0818L33.1421 34.8592L33.8147 35.9955L34.4262 37.0719L34.9154 38.0885L35.7104 39.165L36.6276 39.8826L37.3614 40.66L37.8506 41.6169V42.4541V43.1119L37.2391 42.6933L36.6582 42.2747L35.6186 41.8561L34.5485 41.6169L33.3255 41.3776L32.3472 41.2879H31.3382L30.0846 41.1982L28.8616 41.1384L28.1278 40.8992L27.3329 40.6899L26.2933 40.3909L25.3455 40.062L24.1226 39.4341L23.3276 38.8959L21.9212 37.8792L21.0345 37.1317L20.3313 36.3244L20.0255 35.7263L19.8115 35.0386L19.7198 34.3808L20.9733 34.5303L21.9422 34.6001L22.9017 34.6798H24.2148H25.3259L26.4369 34.6001L27.447 34.4991L28.4066 34.3981L29.6186 34.1961L30.4772 33.9941L31.2852 33.7416Z" fill="url(#paint12_linear_10467_2583)"/>
<path d="M20.2756 34.5496L16.6036 33.3621L15.3263 32.479H14.8718L14.5846 32.914L14.2709 33.7807L13.2795 36.0532L12.2298 38.3257L11.1218 40.5383L10.1304 42.6314C10.1304 42.6314 9.30461 44.2052 9.28476 44.8441C9.25483 45.8071 10.3636 46.2794 10.3636 46.2794L12.6963 47.7146L15.1456 49.389C15.1456 49.389 16.5988 50.8939 16.6327 49.5386C16.6619 48.3724 16.8368 47.4156 16.8368 47.4156L17.3617 45.5019L18.4697 42.3922L19.2278 39.6413L19.7265 37.3616L19.9276 36.3522L20.2756 34.5496Z" fill="url(#paint13_linear_10467_2583)"/>
<path d="M18.7046 35.7815C18.7046 36.1489 18.8558 36.5018 19.1258 36.7647C19.3957 37.0276 19.7631 37.1796 20.1494 37.1884C20.5357 37.1972 20.9103 37.0619 21.1932 36.8116C21.476 36.5612 21.6447 36.2156 21.6631 35.8486C21.6815 35.4816 21.5483 35.1223 21.2918 34.8475C21.0353 34.5726 20.676 34.4041 20.2905 34.3778C19.9051 34.3515 19.5241 34.4696 19.2291 34.7069C18.934 34.9441 18.7482 35.2817 18.7114 35.6474" fill="url(#paint14_linear_10467_2583)"/>
<path d="M35.78 41.9231L36.6735 42.2334L37.8506 43.0557L37.82 43.2949L37.6671 43.4594L37.3461 43.6537L36.7652 43.6238L36.4289 43.609L36.3355 43.5897L36.1335 43.4887V43.3877V43.1857L36.1146 43.0557L36.083 42.8827L36.0325 42.6806L35.982 42.4786L35.9315 42.2766L35.881 42.1251L35.78 41.9231Z" fill="#338000"/>
<path d="M27.75 40.79L27.0487 41.5375L26.2844 42.1056L25.4283 42.614L24.3276 43.3017L23.0435 44.0791L21.7593 44.7967L20.842 45.3649L19.8331 45.8732L18.6713 46.3516L17.9986 46.5011L17.112 46.531L17.2954 45.5144L17.9986 45.4247L18.763 45.1854L20.0471 44.6173L20.842 44.1688L21.851 43.5708L22.7988 42.8532L23.8384 42.1655L25.0614 41.2983L25.7952 40.8498L26.2844 40.3575L27.3965 40.711L27.75 40.79Z" fill="url(#paint15_linear_10467_2583)"/>
<path d="M5.64135 28.8733C5.17999 28.4497 5.93663 26.9286 7.33136 25.4757C8.72609 24.0229 10.2308 23.1886 10.6921 23.6122C11.1535 24.0358 10.3968 25.557 9.00209 27.0098C7.60736 28.4626 6.10271 29.2969 5.64135 28.8733Z" fill="url(#paint16_linear_10467_2583)"/>
<path d="M10.8315 23.7925L10.5285 24.9036L10.0235 25.7622L9.11445 26.8732L7.95288 27.9843L6.84182 28.6913L5.98327 28.9943L5.62975 28.8433L13.5082 35.5597L14.5183 33.1861L14.6193 32.8831L14.9223 32.479H15.2253L15.4273 32.5295L14.1142 31.3175L13.0537 29.9539L12.5123 28.801L12.0799 27.6813L11.8637 26.5176L12.0799 26.1662L12.4476 25.7622L12.5123 25.5601L10.8315 23.7925Z" fill="url(#paint17_linear_10467_2583)"/>
<path d="M7.92567 20.778L7.82326 22.1123L6.25568 21.5932L8.19028 24.1987L9.65064 24.7623L9.68909 23.4715L7.92567 20.778Z" fill="#E9DDAF"/>
<path d="M4.08248 22.1965L4.35332 23.508L2.70058 23.4234L5.28436 25.4193L6.84619 25.575L6.52582 24.3224L4.08248 22.1965Z" fill="#E9DDAF"/>
<path d="M6.66873 22.9861L6.93956 24.2977L5.28683 24.213L7.87061 26.2089L9.43243 26.3647L9.11206 25.112L6.66873 22.9861Z" fill="#E9DDAF"/>
<path d="M4.06176 25.1095L4.5487 26.3599L2.90408 26.5413L5.78736 28.0962L7.35419 27.9995L6.82827 26.8151L4.06176 25.1095Z" fill="#E9DDAF"/>
<path d="M7.82082 22.1409L10.2855 25.3653L10.199 25.4393L7.7235 22.1727L7.82082 22.1409Z" fill="#1A1A1A"/>
<path d="M6.92671 24.2057L9.51849 26.4187L9.41749 26.4692L6.8381 24.2562L6.92671 24.2057Z" fill="#1A1A1A"/>
<path d="M4.4235 23.5158L9.01343 26.9742L8.96292 27.0752L4.33278 23.5642L4.4235 23.5158Z" fill="#1A1A1A"/>
<path d="M4.54748 26.3321L7.70038 28.1863L7.54887 28.2873L4.46563 26.3937L4.54748 26.3321Z" fill="#1A1A1A"/>
<defs>
<linearGradient id="paint0_linear_10467_2583" x1="5.96668" y1="41.2033" x2="22.3419" y2="39.7295" gradientUnits="userSpaceOnUse">
<stop stop-color="#E4E5ED"/>
<stop offset="0.35" stop-color="#DBD8E6"/>
<stop offset="0.98" stop-color="#C5B9D4"/>
<stop offset="1" stop-color="#C5B8D4"/>
</linearGradient>
<linearGradient id="paint1_linear_10467_2583" x1="19.2209" y1="46.4225" x2="15.8959" y2="28.6087" gradientUnits="userSpaceOnUse">
<stop stop-color="#FBFBFD"/>
<stop offset="1" stop-color="#F0F1F5"/>
</linearGradient>
<linearGradient id="paint2_linear_10467_2583" x1="24.4299" y1="31.5582" x2="22.4614" y2="50.3156" gradientUnits="userSpaceOnUse">
<stop stop-color="#E8E2EC"/>
<stop offset="1" stop-color="#E7E2EB"/>
</linearGradient>
<radialGradient id="paint3_radial_10467_2583" cx="0" cy="0" r="1" gradientUnits="userSpaceOnUse" gradientTransform="translate(15.1098 38.8656) rotate(180) scale(5.74872 13.8651)">
<stop stop-color="#DAD1E2"/>
<stop offset="0.21" stop-color="#DAD1E2" stop-opacity="0.9801"/>
<stop offset="0.35" stop-color="#DAD1E2" stop-opacity="0.9025"/>
<stop offset="0.47" stop-color="#DBD2E3" stop-opacity="0.7744"/>
<stop offset="0.58" stop-color="#DCD4E4" stop-opacity="0.6241"/>
<stop offset="0.68" stop-color="#DED6E5" stop-opacity="0.4356"/>
<stop offset="0.77" stop-color="#E0D8E7" stop-opacity="0.2601"/>
<stop offset="0.87" stop-color="#E3DBE9" stop-opacity="0.1089"/>
<stop offset="0.95" stop-color="#E6DEEB" stop-opacity="0.0169"/>
<stop offset="1" stop-color="#E8E1ED" stop-opacity="0"/>
</radialGradient>
<linearGradient id="paint4_linear_10467_2583" x1="13.8811" y1="32.3321" x2="13.4491" y2="42.7679" gradientUnits="userSpaceOnUse">
<stop stop-color="#F4EFF1"/>
<stop offset="1" stop-color="#F5F0F2"/>
</linearGradient>
<linearGradient id="paint5_linear_10467_2583" x1="20.84" y1="9.82017" x2="17.5881" y2="35.3049" gradientUnits="userSpaceOnUse">
<stop stop-color="#E8E2EC"/>
<stop offset="0.09" stop-color="#E1DCE8"/>
<stop offset="0.24" stop-color="#DDD8E6"/>
<stop offset="0.61" stop-color="#E7DFE6"/>
<stop offset="1" stop-color="#EDE4E7"/>
</linearGradient>
<linearGradient id="paint6_linear_10467_2583" x1="20.21" y1="17.191" x2="21.0023" y2="10.7746" gradientUnits="userSpaceOnUse">
<stop stop-color="#FBFBFD"/>
<stop offset="1" stop-color="#F4F4F9"/>
</linearGradient>
<linearGradient id="paint7_linear_10467_2583" x1="27.6595" y1="17.1417" x2="28.0235" y2="11.1538" gradientUnits="userSpaceOnUse">
<stop stop-color="#FBFBFD"/>
<stop offset="1" stop-color="#F4F4F9"/>
</linearGradient>
<linearGradient id="paint8_linear_10467_2583" x1="29.2032" y1="13.1495" x2="13.8091" y2="24.2139" gradientUnits="userSpaceOnUse">
<stop stop-color="#71C837"/>
<stop offset="1" stop-color="#153B4E"/>
</linearGradient>
<linearGradient id="paint9_linear_10467_2583" x1="17.0041" y1="9.11554" x2="2.56147" y2="4.97326" gradientUnits="userSpaceOnUse">
<stop stop-color="#E9DDAF"/>
<stop offset="1" stop-color="#E5B6F2"/>
</linearGradient>
<linearGradient id="paint10_linear_10467_2583" x1="19.9429" y1="15.1633" x2="13.7788" y2="14.6007" gradientUnits="userSpaceOnUse">
<stop stop-color="#FFE680"/>
<stop offset="1" stop-color="#FF80DD"/>
</linearGradient>
<linearGradient id="paint11_linear_10467_2583" x1="34.4112" y1="19.4335" x2="30.8742" y2="33.3513" gradientUnits="userSpaceOnUse">
<stop stop-color="#71C639"/>
<stop offset="1" stop-color="#153A4C"/>
</linearGradient>
<linearGradient id="paint12_linear_10467_2583" x1="37.8506" y1="38.4773" x2="9.01612" y2="29.137" gradientUnits="userSpaceOnUse">
<stop stop-color="#71C738"/>
<stop offset="1" stop-color="#153A4C"/>
</linearGradient>
<linearGradient id="paint13_linear_10467_2583" x1="19.7708" y1="36.8466" x2="2.5481" y2="39.0333" gradientUnits="userSpaceOnUse">
<stop stop-color="#71C738"/>
<stop offset="1" stop-color="#153A4C"/>
</linearGradient>
<linearGradient id="paint14_linear_10467_2583" x1="21.6648" y1="35.7815" x2="15.8917" y2="35.7815" gradientUnits="userSpaceOnUse">
<stop stop-color="#FFE680"/>
<stop offset="1" stop-color="#FF80DD"/>
</linearGradient>
<linearGradient id="paint15_linear_10467_2583" x1="27.6908" y1="43.4811" x2="15.7053" y2="32.4511" gradientUnits="userSpaceOnUse">
<stop stop-color="#784421"/>
<stop offset="1" stop-color="#C3B3EA"/>
</linearGradient>
<linearGradient id="paint16_linear_10467_2583" x1="7.48871" y1="26.4812" x2="9.74157" y2="28.0597" gradientUnits="userSpaceOnUse">
<stop stop-color="#28170B"/>
<stop offset="1" stop-color="#BB79DC"/>
</linearGradient>
<linearGradient id="paint17_linear_10467_2583" x1="12.3475" y1="33.9" x2="18.4528" y2="29.0438" gradientUnits="userSpaceOnUse">
<stop stop-color="#784421"/>
<stop offset="1" stop-color="#C3B3EA"/>
</linearGradient>
</defs>
</svg>
