<svg width="58" height="57" viewBox="0 0 58 57" fill="none" xmlns="http://www.w3.org/2000/svg">
<path d="M26.0909 50.4875C26.0981 50.5459 26.1052 50.598 26.0954 50.6582C26.0846 50.7283 26.0352 50.9394 25.9112 51.0131C25.3846 51.324 22.4834 51.5881 20.0251 50.6447C19.4267 50.4147 18.8526 50.1362 18.3153 49.7857C17.9747 49.5638 17.6602 49.3086 17.3566 49.0391C17.1661 48.8693 16.9792 48.6968 16.8157 48.5C16.6674 48.3212 16.7078 48.1253 16.9208 48.0355C16.9702 48.0148 17.0214 47.9986 17.0708 47.9771C17.1715 47.933 17.1733 47.9286 17.1247 47.827C17.0798 47.7336 17.0286 47.6428 17.0079 47.5386C16.9756 47.3751 17.0331 47.2924 17.1984 47.2951C17.4599 47.3005 17.7195 47.3328 17.9783 47.3724C18.4527 47.4443 18.928 47.5134 19.4087 47.5422C19.7681 47.5638 20.1266 47.5647 20.4851 47.5539C20.8571 47.5431 21.2291 47.5161 21.6002 47.4784C22.0647 47.4317 22.531 47.4119 22.9982 47.4326C23.2121 47.4425 23.3963 47.5494 23.5715 47.6626C23.8797 47.8612 24.16 48.0957 24.4322 48.3419C24.6515 48.5395 24.8626 48.7444 25.0639 48.9582C25.4026 49.3194 25.7252 49.695 25.9804 50.1236C26.0477 50.2368 26.0729 50.3563 26.0882 50.4884L26.0909 50.4875Z" fill="url(#paint0_linear_10445_872)"/>
<path d="M19.5977 47.5501C19.5977 47.5501 20.029 48.5214 20.1116 48.7011C20.622 49.8161 21.0074 50.9554 21.0074 50.9554C21.0074 50.9554 20.8349 50.915 20.7837 50.9006C20.3282 50.7685 19.8825 50.6059 19.4521 50.4056C19.0846 50.2348 18.7207 50.0542 18.3811 49.8296C18.0756 49.6275 17.7809 49.4118 17.5069 49.1674C17.3083 48.9913 17.107 48.8179 16.9237 48.6247C16.8528 48.5493 16.7773 48.4765 16.7449 48.3731C16.7108 48.2635 16.7234 48.127 16.8626 48.0659C16.9417 48.0317 17.0217 47.9994 17.1016 47.9688C17.1654 47.9446 17.1744 47.9131 17.143 47.8547C17.0918 47.7604 17.0405 47.6651 17.0127 47.56C16.9723 47.4091 17.0064 47.2976 17.1618 47.2869C17.4224 47.2689 17.7656 47.33 18.2005 47.4037C18.532 47.4603 18.8672 47.4944 19.2023 47.5295C19.2778 47.5375 19.5968 47.5501 19.5968 47.5501H19.5977Z" fill="#675C5A"/>
<path d="M40.6358 53.7794C40.1191 53.5332 39.0355 53.0831 38.5836 52.8647C38.1865 52.6724 37.7893 52.4811 37.3841 52.3086C36.836 52.0749 36.2781 51.8746 35.7219 51.6679C35.5943 51.6203 35.4694 51.5682 35.3535 51.4927C35.2466 51.4235 35.2286 51.3382 35.278 51.2178C35.3247 51.1046 35.3562 50.9842 35.4775 50.9347C35.4919 50.9285 35.5053 50.9177 35.5206 50.9123C35.9205 50.7775 36.3095 50.6113 36.7129 50.4855C37.4308 50.2627 38.093 49.9114 38.6528 49.3696C38.925 49.1063 39.138 48.7882 39.3473 48.4675C39.4255 48.348 39.5127 48.2339 39.6528 48.1889C39.74 48.1611 39.8163 48.1719 39.8954 48.233C40.023 48.3318 40.1775 48.3785 40.3186 48.4522C40.7571 48.6804 41.1767 48.9473 41.6017 49.2033C41.8398 49.3471 42.0824 49.4801 42.3501 49.5466C42.5711 49.6005 42.7904 49.5951 43.0141 49.5591C43.3528 49.5052 43.6925 49.4432 44.0402 49.4855C45.007 49.605 44.5955 51.2708 44.4867 51.6464C44.361 52.083 44.1588 52.4811 43.9566 52.8791C43.7841 53.2196 43.2163 54.0256 43.0033 54.1954C42.7706 54.3805 42.3447 54.5934 40.6358 53.7785V53.7794Z" fill="url(#paint1_linear_10445_872)"/>
<path d="M40.2485 48.2504C40.2339 48.2577 40.2166 48.2568 40.1893 48.2258C40.2175 48.2367 40.2312 48.2422 40.2485 48.2504Z" fill="url(#paint2_linear_10445_872)"/>
<path d="M40.2512 48.2546C40.2512 48.2546 40.2554 48.2587 40.2575 48.2608C40.2554 48.2608 40.2544 48.2608 40.2523 48.2566C40.2523 48.2525 40.2523 48.2546 40.2512 48.2546Z" fill="url(#paint3_linear_10445_872)"/>
<path d="M40.3011 48.2857L40.298 48.2815C40.298 48.2815 40.3032 48.2836 40.3011 48.2857Z" fill="url(#paint4_linear_10445_872)"/>
<path d="M39.9835 26.9044C40.2045 26.3994 41.2414 23.3149 43.9216 24.2951C44.4239 24.4784 44.7806 24.907 45.0483 25.3805C45.1876 25.6276 45.2657 25.8927 45.2909 26.1766C45.3727 27.1074 45.1301 27.9772 44.7797 28.8209C44.3637 29.8236 42.9647 31.9198 41.7346 33.1507C41.3052 33.5802 40.8532 33.9827 40.3905 34.3754C39.9035 34.7887 39.4039 35.1876 38.8594 35.5237C38.4713 35.7636 38.0742 35.9846 37.6357 36.1257C37.4443 36.1877 37.2673 36.1859 37.0831 36.1059C36.4613 35.839 36.0157 35.4033 35.7767 34.7653C35.6024 34.3008 35.6509 34.0564 35.7704 33.9046C35.9806 33.6359 36.2134 33.387 36.429 33.1229C36.8558 32.6 37.2655 32.0644 37.6285 31.4948C38.0202 30.8802 38.3859 30.2504 38.7229 29.6035C39.1658 28.7526 39.572 27.8855 39.9457 27.0023C39.9583 26.9726 39.97 26.9421 39.9853 26.9053L39.9835 26.9044Z" fill="url(#paint5_linear_10445_872)"/>
<path d="M39.9835 26.9044C40.2045 26.3994 41.2414 23.3149 43.9216 24.2951C44.4239 24.4784 44.7806 24.907 45.0483 25.3805C45.1876 25.6276 45.2657 25.8927 45.2909 26.1766C45.3727 27.1074 45.1301 27.9772 44.7797 28.8209C44.3637 29.8236 42.9647 31.9198 41.7346 33.1507C41.3052 33.5802 40.8532 33.9827 40.3905 34.3754C39.9035 34.7887 39.4039 35.1876 38.8594 35.5237C38.4713 35.7636 38.0742 35.9846 37.6357 36.1257C37.4443 36.1877 37.2673 36.1859 37.0831 36.1059C36.4613 35.839 36.0157 35.4033 35.7767 34.7653C35.6024 34.3008 35.6509 34.0564 35.7704 33.9046C35.9806 33.6359 36.2134 33.387 36.429 33.1229C36.8558 32.6 37.2655 32.0644 37.6285 31.4948C38.0202 30.8802 38.3859 30.2504 38.7229 29.6035C39.1658 28.7526 39.572 27.8855 39.9457 27.0023C39.9583 26.9726 39.97 26.9421 39.9853 26.9053L39.9835 26.9044Z" fill="url(#paint6_linear_10445_872)"/>
<path d="M43.7015 24.2223C43.4472 24.65 43.0977 25.2071 42.9332 25.4847C42.8065 25.6986 42.5011 25.7848 42.3618 25.5404C42.2827 25.4011 42.298 25.2682 42.3789 25.1352C42.6017 24.7677 42.7958 24.4793 43.0195 24.1046C43.254 24.1082 43.4526 24.1406 43.7015 24.2232V24.2223Z" fill="#A27E73"/>
<path d="M43.6817 25.9753C43.8785 25.6392 44.2163 25.0741 44.4742 24.6338C44.6566 24.7946 44.8012 24.9689 44.9243 25.1747C44.8093 25.3562 44.3385 26.1523 44.2172 26.3589C44.1615 26.4541 44.0024 26.6186 43.767 26.4757C43.5784 26.3616 43.5757 26.1541 43.6808 25.9753H43.6817Z" fill="#A27D72"/>
<path d="M36.5054 34.2298C36.6285 34.449 36.7435 34.6647 36.8459 34.8866C39.6591 40.9811 40.5001 46.4521 40.5001 48.5887C40.5001 48.976 40.3465 50.4019 38.722 51.1881C37.8442 51.6131 36.8971 51.809 35.9627 52.0489C35.2574 52.2295 34.5575 52.4307 33.853 52.6131C33.0911 52.8108 32.3229 52.9815 31.5439 53.0992C31.1476 53.1594 30.7487 53.198 30.3498 53.2394C29.6894 53.3076 29.0272 53.3391 28.3632 53.3364C24.4314 53.3247 23.9426 51.2708 23.1213 47.9768C22.9587 47.3245 22.8123 46.6686 22.6946 46.0064C22.6047 45.4961 22.5283 44.983 22.4699 44.4682C22.4043 43.8887 22.3567 43.3073 22.3172 42.7251C22.2821 42.213 22.2534 41.7017 22.2534 41.1878C22.2534 40.8248 22.2372 40.4627 22.2417 40.0997C22.2489 39.5651 22.2552 39.0296 22.2848 38.4959C22.3154 37.9604 22.3612 37.4249 22.4241 36.8921C22.4636 36.5587 22.4987 36.2236 22.5203 35.8875C22.5787 34.9783 22.1833 34.2999 23.4834 33.5371C23.9093 33.2873 24.3801 33.157 24.8572 33.0582C25.426 32.9405 26.001 32.8758 26.5824 32.8515C27.4656 32.8147 28.3497 32.8488 29.2329 32.829C30.3004 32.8057 31.3669 32.8245 32.4343 32.8093C32.9294 32.8021 33.4244 32.7877 33.9195 32.7635C34.216 32.7491 35.3571 32.6574 35.7516 33.1498C35.8648 33.2909 35.9807 33.4256 36.0849 33.5721C36.235 33.7824 36.3751 33.9998 36.5054 34.2316V34.2298Z" fill="url(#paint7_linear_10445_872)"/>
<path d="M28.4764 50.5942C28.7469 50.9869 28.896 51.419 29.0263 51.8683C29.3291 52.9133 27.9688 54.8891 26.3541 55.6222C25.3901 56.0607 24.9983 56.0823 24.3828 56.1209C24.0252 56.1434 23.6658 56.1353 23.3109 56.2063C23.1321 56.2422 22.9803 56.3186 22.8428 56.4327C22.7269 56.5288 22.6056 56.6205 22.4636 56.6753C21.6442 56.9924 21.203 56.0769 21.1581 55.5926C21.1078 55.0553 21.1033 54.5171 21.1213 53.9789C21.133 53.6383 21.1563 53.2969 21.2327 52.9645C21.363 52.3939 21.7233 52.0112 22.2489 51.7749C22.416 51.7003 22.5876 51.6365 22.7467 51.5457C22.8841 51.4667 22.9893 51.3606 23.0692 51.2232C23.2588 50.8997 23.346 50.5457 23.372 50.1773C23.4098 49.6454 23.7117 49.2797 24.1151 48.9859C24.6039 48.6292 25.1627 48.5582 25.7477 48.6499C26.4754 48.764 27.0783 49.1243 27.6183 49.6077C27.9436 49.8988 28.2257 50.2276 28.4764 50.5942Z" fill="url(#paint8_linear_10445_872)"/>
<path d="M24.1896 34.6638C25.1232 34.9792 25.1483 35.9505 25.1564 36.3153C25.169 36.8723 25.1789 38.1527 24.1061 39.841C23.788 40.3414 22.5023 42.8572 19.8562 44.1017C15.2478 46.2688 13.2271 42.7827 15.1238 40.7089C15.4356 40.3675 15.8219 40.1267 16.2191 39.8994C16.7204 39.6119 17.2119 39.3082 17.7142 39.0215C18.2847 38.6954 18.8382 38.3414 19.3863 37.9802C19.9829 37.5875 20.5543 37.1581 21.097 36.6935C21.4429 36.397 21.7718 36.0816 22.08 35.7447C22.3971 35.3979 22.7377 35.0726 23.142 34.8228C23.3046 34.7222 23.7323 34.5093 24.1905 34.6638H24.1896Z" fill="url(#paint9_linear_10445_872)"/>
<path opacity="0.75" d="M15.6566 44.443C15.4652 44.3469 15.2882 44.2319 15.1229 44.0675C15.5623 43.7404 15.9504 43.461 16.4167 43.1106C16.5272 43.0279 16.7052 43.0414 16.7941 43.1142C16.9019 43.2022 16.9451 43.3289 16.9028 43.4601C16.875 43.549 16.7923 43.6038 16.7052 43.6685C16.3161 43.9578 16.0205 44.1726 15.6557 44.4439L15.6566 44.443Z" fill="#966E63"/>
<path d="M14.5829 43.2894C14.4984 43.0818 14.4436 42.8905 14.4257 42.6596C14.6844 42.4799 15.2244 42.1312 15.5281 41.921C15.6719 41.8213 15.8875 41.8734 15.9675 42.0162C16.0483 42.16 15.998 42.3352 15.8597 42.4313C15.441 42.7189 14.989 43.0118 14.5838 43.2903L14.5829 43.2894Z" fill="#A27E73"/>
<path d="M25.1753 34.6C26.6848 34.6 29.852 34.4463 30.8116 34.3376C31.843 34.2208 32.8098 34.0941 33.7559 33.6583C34.4056 33.3591 35.0156 33.0015 35.5763 32.5622C35.8414 32.3546 36.0974 32.1354 36.3571 31.9206C36.385 31.8982 36.4146 31.8766 36.4443 31.8578C36.6168 31.7481 36.7471 31.7931 36.8064 31.9871C36.8684 32.1893 36.889 32.4004 36.9169 32.6089C36.9914 33.1678 36.9932 34.2774 36.9214 34.83C36.624 37.1149 35.6841 39.3261 35.5934 39.4977C35.5152 39.645 35.3777 39.6891 35.2304 39.6118C35.0318 39.5076 34.8692 39.353 34.6949 39.2156C34.2304 38.8481 33.7488 38.504 33.2824 38.1401C32.826 37.7843 32.4073 37.3898 32.0272 36.9504C31.7083 36.5821 31.4513 36.1732 31.2105 35.7527C31.1782 35.6952 31.1629 35.6386 31.1036 35.7572C30.9041 36.1553 30.7019 36.5515 30.4908 36.9433C30.0433 37.7771 29.5231 38.5624 28.9436 39.309C28.6516 39.6855 28.3578 40.0629 28.0199 40.4007C27.9274 40.4932 27.6111 40.8634 27.2086 40.5516C26.7566 40.2012 26.435 39.8885 26.0846 39.5166C25.4233 38.8139 23.4969 36.7959 23.1752 36.4284C22.9389 36.1589 22.7224 35.8731 22.4959 35.5955C22.425 35.5075 21.7241 34.6476 21.9146 34.6081C22.133 34.5622 24.9776 34.5982 25.1753 34.5982V34.6Z" fill="url(#paint10_linear_10445_872)"/>
<path d="M24.5526 37.5973C26.9345 39.1149 29.0784 38.7618 29.4288 38.6567C28.9858 39.2991 28.4925 39.9208 27.9292 40.4833C27.692 40.7205 27.6165 40.8355 27.276 40.6046C26.6542 40.1832 25.1645 38.5417 23.7368 37.0501C23.7044 37.0169 23.6577 36.9567 23.6236 36.9154C23.6155 36.8983 24.1986 37.3718 24.5526 37.5973Z" fill="#5C4E49"/>
<path d="M33.7209 38.4743C34.2115 38.2721 35.2995 37.6351 36.1073 36.3224C36.7075 35.3475 36.9357 34.1992 36.9753 34.006C37.0274 35.7473 36.2475 37.8121 35.9483 38.6243C35.8566 38.8723 35.7677 39.096 35.6572 39.3611C35.4954 39.7493 35.3903 39.7627 35.0713 39.512C34.6284 39.1643 34.1683 38.8265 33.72 38.4743H33.7209Z" fill="#5D4F4A"/>
<path d="M24.7269 34.8408C24.2633 34.8408 23.8087 34.8399 23.345 34.8408C22.8158 34.8138 22.292 34.8165 21.7853 34.6862C21.124 34.5173 20.4851 34.272 19.9227 33.8875C19.4456 33.5613 18.9676 33.2271 18.5623 32.8039C18.123 32.3447 17.7177 31.8649 17.4428 31.2872C17.3673 31.1282 17.2937 30.9673 17.2775 30.7885C17.2415 30.3851 17.4141 30.0976 17.7878 29.9296C17.9451 29.8586 18.1059 29.7957 18.273 29.7553C18.3719 29.7319 18.3575 29.6969 18.3143 29.6331C18.1364 29.3671 17.9756 29.0913 17.884 28.7813C17.7672 28.3869 17.8777 28.076 18.2191 27.8451C18.4626 27.6806 18.7304 27.5683 19.0134 27.4937C19.114 27.4668 19.1338 27.4308 19.0996 27.3302C18.911 26.7785 18.8103 26.2071 18.7205 25.6329C18.6333 25.0732 18.5848 24.5107 18.5453 23.9456C18.4869 23.11 18.4698 22.2735 18.4905 21.437C18.5048 20.8565 18.5372 20.2752 18.5947 19.6975C18.6872 18.7765 18.8175 17.8618 19.0664 16.9678C19.1652 16.6129 19.2605 16.2526 19.4357 15.9256C19.619 15.585 19.9865 15.4835 20.3333 15.6551C20.61 15.7917 20.8472 15.984 21.0674 16.1969C21.69 16.7971 22.2237 17.4737 22.7305 18.1709C23.1618 18.763 23.5661 19.374 23.9372 20.0056C23.9758 20.0712 24.0108 20.0847 24.0818 20.0676C24.629 19.9365 25.1726 19.7918 25.7261 19.6921C26.1726 19.6112 26.6219 19.5447 27.072 19.4845C27.7441 19.3947 28.4189 19.3426 29.0954 19.2958C29.2563 19.285 29.418 19.277 29.5797 19.2743C30.047 19.2653 30.5133 19.2554 30.9805 19.2527C31.2132 19.2509 31.4468 19.2635 31.6804 19.2734C31.7514 19.277 31.7784 19.2554 31.7954 19.1835C32.0344 18.1422 32.3804 17.1349 32.7883 16.1493C32.9886 15.6659 33.1917 15.1798 33.517 14.7602C33.7299 14.4862 34.0138 14.3756 34.3005 14.4637C34.5062 14.5266 34.659 14.6659 34.791 14.8339C35.1792 15.3281 35.4586 15.8887 35.7605 16.435C36.0256 16.9157 36.279 17.4036 36.4883 17.9121C36.5782 18.1314 36.6617 18.3533 36.7372 18.5779C36.9951 19.3435 37.3122 20.0874 37.5548 20.8574C37.8558 21.8116 38.1622 22.764 38.3913 23.7389C38.4506 23.9896 38.5099 24.2412 38.5647 24.4928C38.5827 24.5754 38.6088 24.6078 38.6986 24.57C38.8945 24.4874 39.0975 24.4352 39.315 24.4415C39.6124 24.4496 39.8765 24.6257 39.9817 24.9025C40.0985 25.2098 40.1209 25.5278 40.0994 25.854C40.0796 26.1523 40.0401 26.4461 39.9664 26.7354C39.9457 26.8163 39.9853 26.828 40.0518 26.8181C40.2755 26.7839 40.4947 26.7974 40.7086 26.8756C41.041 26.9978 41.1937 27.2547 41.2342 27.5872C41.2926 28.0679 41.1632 28.5153 40.9772 28.9538C40.7184 29.563 40.3545 30.1066 39.9601 30.6349C39.7229 30.9521 39.483 31.2656 39.2045 31.5433C38.6267 32.1183 38.0346 32.6817 37.3059 33.0698C36.8702 33.3025 36.4003 33.4517 35.9267 33.5847C35.0795 33.8219 34.2142 33.9701 33.3471 34.1112C32.7712 34.2046 32.1935 34.2864 31.6139 34.3601C31.1377 34.4203 30.6597 34.4652 30.1826 34.5173C29.5195 34.5892 28.8538 34.6305 28.1889 34.6853C27.9427 34.7051 27.6947 34.7195 27.4476 34.7303C26.9094 34.7527 26.373 34.7932 25.8348 34.803C25.4691 34.8093 25.1034 34.8282 24.7278 34.8426L24.7269 34.8408Z" fill="url(#paint11_linear_10445_872)"/>
<path d="M21.5121 32.6673C21.4105 32.7491 21.3 32.7706 21.1814 32.7149C21.0601 32.6583 21.0134 32.5568 21.0188 32.4256C21.0242 32.2989 21.088 32.2244 21.1994 32.1588C21.4608 32.0051 22.6442 31.1848 23.0566 30.8964C23.1464 30.8335 23.2399 30.8047 23.3495 30.8434C23.5463 30.9116 23.6083 31.1569 23.4609 31.3043C23.336 31.4283 21.557 32.6332 21.513 32.6691L21.5121 32.6673Z" fill="#E3D3BF"/>
<path d="M36.4379 28.6923C36.305 28.7301 36.1432 28.6816 36.0893 28.5558C36.0237 28.4039 36.0929 28.2485 36.2061 28.1901C36.455 28.0616 37.6186 27.4515 38.2376 27.1316C38.42 27.0373 38.6096 27.1254 38.659 27.3203C38.6905 27.4443 38.6294 27.5737 38.5027 27.6429C38.1963 27.8082 37.8908 27.9726 37.5826 28.1344C37.3418 28.2611 36.5808 28.6519 36.4388 28.6932L36.4379 28.6923Z" fill="#E3D3BF"/>
<path d="M36.2403 30.1255C36.1711 30.0967 36.1262 30.0446 36.0875 29.9808C35.977 29.7939 36.1576 29.5073 36.4002 29.5711C36.7668 29.6672 37.8944 30.1524 38.4865 30.4525C38.6815 30.5514 38.6995 30.7463 38.6402 30.8658C38.5665 31.0159 38.3724 31.059 38.2089 30.971C38.1235 30.9251 36.8117 30.3663 36.2403 30.1255Z" fill="#E3D3BF"/>
<path d="M20.5614 29.351C20.3907 29.2881 20.2874 29.139 20.3341 28.9835C20.3853 28.8146 20.5399 28.7418 20.7295 28.793C21.2623 28.9377 22.557 29.3869 22.752 29.4516C23.2012 29.6008 22.9371 30.1291 22.5786 30.0087C22.2794 29.909 20.955 29.4957 20.5605 29.3501L20.5614 29.351Z" fill="#E3D3BF"/>
<path d="M29.7675 30.6394C29.0469 30.599 29.1098 30.2252 29.1251 30.1937C29.276 29.8972 29.5519 30.085 29.8214 30.0976C30.1332 30.112 30.3938 30.0311 30.6229 29.8272C30.7585 29.7068 30.8439 29.4731 31.0119 29.448C31.1647 29.4246 31.2851 29.5603 31.3947 29.6169C31.7667 29.8083 32.1377 29.8352 32.4927 29.5684C32.7065 29.4076 33.0767 29.6852 32.8431 29.9592C32.6643 30.1695 31.8323 30.5271 31.1188 30.0608C30.9185 30.3168 30.6894 30.6394 29.7675 30.6394Z" fill="#744D43"/>
<path d="M33.7317 25.3068C33.9662 25.2799 34.1998 25.2484 34.4352 25.2358C34.4864 25.2331 34.5376 25.2295 34.5987 25.226C34.5789 25.2817 34.5277 25.3167 34.4846 25.3329C32.056 26.2386 32.6454 29.9224 28.107 27.7993C27.2589 27.403 25.8294 26.5692 25.3415 26.4632C25.2723 26.4479 25.2049 26.4255 25.1357 26.4075C25.0998 26.3985 25.0755 26.3787 25.0764 26.3392C25.0782 26.2988 25.1159 26.2952 25.142 26.2916C25.2759 26.2709 25.4098 26.2511 25.5445 26.235C25.965 26.1847 33.3848 25.3464 33.7326 25.3059L33.7317 25.3068Z" fill="url(#paint12_linear_10445_872)"/>
<path d="M30.0838 28.2718C30.1359 28.0122 30.7073 27.7875 31.1719 27.828C31.41 27.8486 31.5169 28.014 31.463 28.2503C31.4037 28.5108 31.2635 28.6977 31.0802 28.8909C31.0344 28.9394 30.976 28.9646 30.905 28.9547C30.6292 28.917 30.3893 28.8073 30.2015 28.5989C30.1278 28.5171 30.0586 28.3958 30.0829 28.2718H30.0838Z" fill="url(#paint13_linear_10445_872)"/>
<path d="M34.6005 27.5315C34.3085 27.9403 33.8547 27.9618 33.5124 27.801C33.1701 27.6402 32.7846 27.3769 32.6157 25.836C32.6067 25.7506 32.6013 25.6644 32.5941 25.5781C32.5861 25.4847 32.6238 25.446 32.7226 25.4397C32.7226 25.4397 34.4666 25.2493 34.5394 25.2654C34.6122 25.2816 34.6337 25.3319 34.6463 25.3912C34.7119 25.694 34.7802 25.9959 34.8027 26.3149C34.8359 26.8019 34.7964 27.2583 34.6005 27.5324V27.5315Z" fill="#362925"/>
<path d="M25.4295 27.978C25.2399 27.5557 25.1815 27.1029 25.1321 26.6482C25.1222 26.5593 25.1168 26.4694 25.1114 26.3796C25.1061 26.2996 25.1429 26.2637 25.2247 26.2592C25.2247 26.2592 26.275 26.172 26.7988 26.1127C27.1097 26.0777 27.1097 26.0759 27.1735 26.3724C27.2481 26.7165 27.3128 27.0624 27.3146 27.4165C27.3173 28.0742 27.0297 28.651 26.5086 28.7067C25.8716 28.7741 25.585 28.3239 25.4286 27.978H25.4295Z" fill="#362925"/>
<path d="M35.6922 21.9356C35.6742 21.9725 32.3067 24.9259 32.3067 24.9259C32.2357 24.9878 32.1377 24.9887 32.0542 24.925C31.976 24.8657 31.631 24.1954 31.4872 23.6958C31.4405 23.535 31.4684 23.4685 31.6292 23.4065C32.9374 22.8997 34.2456 22.393 35.5547 21.8862C35.5943 21.871 35.6446 21.8341 35.6841 21.879C35.6958 21.8925 35.703 21.9141 35.6922 21.9365V21.9356Z" fill="#91695F"/>
<path d="M27.1214 24.101C27.4449 24.0813 27.028 25.2727 26.9201 25.5683C26.8528 25.7525 26.8042 25.7695 26.6263 25.6887C25.5086 25.1792 22.9317 24.0067 22.6873 23.8962C22.6675 23.8872 22.646 23.8809 22.6298 23.8683C22.6011 23.8458 22.5427 23.8405 22.5552 23.7901C22.5687 23.7398 22.6199 23.7569 22.6568 23.7596C22.8877 23.7758 26.983 24.11 27.1205 24.1019L27.1214 24.101Z" fill="#91695F"/>
<path d="M31.9188 24.6126C31.9133 24.6098 31.9078 24.6025 31.9024 24.5953C31.9051 24.5934 31.9078 24.5916 31.9106 24.5898C31.9133 24.5962 31.916 24.6016 31.9188 24.6135V24.6126Z" fill="#9D7970"/>
<path d="M31.9185 24.623C31.924 24.6258 31.9294 24.6331 31.9349 24.6413C31.9322 24.6431 31.9294 24.6449 31.9267 24.6467C31.924 24.6404 31.9212 24.6349 31.9185 24.623Z" fill="#9D7970"/>
<path d="M23.9991 20.0856C23.9991 20.0856 22.6137 20.7326 21.5732 21.446C19.9802 22.5359 18.6486 24.314 18.583 24.358C18.4913 23.3993 18.4644 22.4379 18.4913 21.4756C18.5102 20.7802 18.5524 20.0856 18.6306 19.3929C18.716 18.6292 18.8355 17.8726 19.0233 17.1269C19.1131 16.7684 19.2173 16.4189 19.3728 16.055C19.6917 15.3074 20.3099 15.603 20.4779 15.7126C20.8364 15.9481 21.1293 16.2392 21.4178 16.5492C22.2039 17.3955 22.8742 18.3309 23.5041 19.2968C23.6721 19.5546 24 20.0847 24 20.0847L23.9991 20.0856Z" fill="url(#paint14_linear_10445_872)"/>
<path d="M37.8531 21.8269C37.8531 21.8269 37.0364 21.1908 36.4353 20.8188C35.5377 20.2645 34.4496 19.8269 33.8404 19.6723C32.5178 19.3372 31.8224 19.295 31.7766 19.2788C31.95 18.4737 32.2015 17.6956 32.4828 16.9265C32.7299 16.2518 32.9994 15.586 33.3696 14.9669C33.4603 14.815 33.5673 14.6758 33.7137 14.5707C34.1702 14.2409 34.5556 14.5329 34.7874 14.8285C35.9779 16.3515 36.3311 17.4512 36.8953 18.8736C37.1433 19.4971 37.3275 20.1512 37.5332 20.7901C37.6438 21.1315 37.8549 21.8269 37.8549 21.8269H37.8531Z" fill="url(#paint15_linear_10445_872)"/>
<path opacity="0.93" d="M18.4832 21.7919C18.4832 21.7919 18.5668 18.8277 18.9577 17.1682C19.1041 16.5455 19.2982 15.9363 19.3458 15.2975C19.3898 14.7 19.5327 14.7908 19.7978 15.0396C20.2829 15.4943 20.4842 15.6452 20.9227 16.0567C21.0449 16.1718 21.3692 16.4979 21.3692 16.4979C21.3692 16.4979 20.9757 16.8753 20.69 17.5662C20.0718 19.0622 18.4841 21.791 18.4841 21.791L18.4832 21.7919Z" fill="#534643"/>
<path d="M36.6383 18.1718C36.7848 18.5186 37.0211 19.2168 37.0211 19.2168C37.0211 19.2168 36.3796 18.6381 35.9069 18.1682C35.4865 17.7495 35.004 17.4018 34.561 17.0083C34.0668 16.5698 33.7182 16.3101 33.3669 15.7495C33.2348 15.5383 33.1701 15.3038 33.1701 15.3038C33.1701 15.3038 33.6877 14.0666 33.9033 13.6685C33.9851 13.5176 34.1477 13.5167 34.2654 13.6596C34.4199 13.8491 34.5403 14.0603 34.658 14.2741C35.0417 14.9759 35.4325 15.6731 35.8099 16.3784C36.1127 16.9445 36.3787 17.5285 36.6186 18.1233C36.624 18.1368 36.6302 18.1494 36.6392 18.17L36.6383 18.1718Z" fill="#534643"/>
<path d="M28.1001 40.4821L29.9612 38.1875L30.4958 37.1184L30.8314 35.8772L34.7754 39.7815C34.7754 39.7815 36.9819 33.6338 36.9103 33.2429C35.0816 33.8571 31.6511 34.3723 31.6511 34.3723L28.6004 34.658L25.0739 34.7799L22.3152 34.7907L21.9274 34.7545L21.3952 35.8797C21.3952 35.8797 21.5164 37.4501 24.7818 38.9935C28.0473 40.5368 28.1001 40.4821 28.1001 40.4821Z" fill="url(#paint16_linear_10445_872)"/>
<path d="M21.4979 35.9602C20.9702 36.5338 20.2519 37.1679 20.2519 37.1679L19.2901 37.9173L18.0275 38.7318L17.0591 39.3239L16.3881 39.7723L16.3716 40.0355L16.7418 40.9653L17.6936 41.9494L18.8394 42.9516L20.7486 44.3943L22.4717 45.346L23.2902 45.7843L23.7563 45.7122L24.1253 45.3028L24.6718 44.5183L25.3482 43.5446L26.472 42.0532L27.3049 40.8629L27.6894 40.164L26.2231 39.4116L25.0421 38.8835L24.1695 38.4738L23.4876 38.0035L22.6613 37.3818L22.1391 36.7735L21.4979 35.9602Z" fill="url(#paint17_linear_10445_872)"/>
<path d="M37.2423 33.4809C37.174 33.8251 36.5966 35.1886 36.5966 35.1886L36.2694 35.9375L35.9455 36.7651L35.7009 37.5107L35.366 38.0761L35.1712 38.7747L36.4313 39.1342L37.4647 39.4322L38.6424 39.8816L39.7639 40.3071L40.5814 40.7192L41.3416 41.0811C41.3416 41.0811 41.9629 41.4226 42.0775 41.5229C42.1921 41.6231 42.6702 42.4958 42.6702 42.4958L42.1932 40.3364L41.3041 38.877L40.2465 37.3459L38.7218 35.2043L37.6763 33.9616L37.2423 33.4809Z" fill="url(#paint18_linear_10445_872)"/>
<path d="M20.1612 43.8447C20.2295 44.1569 18.6462 46.0963 15.5404 47.6973C12.3291 49.3526 10.1949 50.4952 10.1949 50.4952L8.37045 51.7272L7.64662 52.2302L9.03588 51.8042C9.03588 51.8042 11.1897 51.1886 12.265 51.1697C13.3403 51.1508 14.7692 51.0119 15.6373 51.3168C16.5055 51.6217 18.1657 53.0487 18.1657 53.0487C18.1657 53.0487 18.4268 53.3528 18.7551 53.2865C19.0834 53.2202 19.4855 52.9407 19.6772 52.9064C19.8689 52.8721 20.3493 52.4843 20.3493 52.4843C20.3493 52.4843 20.8605 52.174 21.1624 52.1351C21.4642 52.0961 21.9876 51.9074 21.9876 51.9074L22.6558 51.6402L23.1012 51.2393C23.1012 51.2393 21.854 51.1502 20.7849 50.8829C19.894 50.5711 18.1063 49.6639 18.1063 49.6639L17.3994 49.0565L16.8203 48.4774L16.7312 48.2993L16.7758 48.1211L16.8649 48.0765L16.954 48.032L17.1322 47.9874L17.1767 47.8983L17.0876 47.7647L16.9985 47.4974L17.0431 47.3638L17.0876 47.3193C17.0876 47.3193 18.5953 47.5426 19.0921 47.5479C19.589 47.5533 20.9696 47.5479 20.9696 47.5479C20.9696 47.5479 22.8552 47.4051 22.9676 47.4529C23.08 47.5007 22.7449 46.1611 22.7449 46.1611L22.6558 45.7602L22.62 45.4038C22.62 45.4038 19.9684 43.8528 20.1612 43.8447Z" fill="url(#paint19_linear_10445_872)"/>
<path d="M37.2667 33.5102L36.1085 36.7174L34.7721 39.7911L34.4603 39.4792L35.8412 36.4056L36.9103 33.2429L37.2667 33.5102Z" fill="#FFE680"/>
<path d="M21.3566 35.9688L21.55 36.2802L21.6729 36.577L21.923 36.9473L22.344 37.5193L22.9231 37.9647L23.7249 38.496L24.5267 38.9447L27.8676 40.9493L28.1349 40.4147L26.2194 39.3011L25.4621 38.9002L24.7471 38.496L24.2343 38.1106L23.5523 37.6403L22.9828 37.2179L22.5664 36.8283L22.1306 36.3084L21.9599 35.856L21.7677 35.5739L21.6537 35.2396L21.3566 35.9688Z" fill="#FFE680"/>
<path d="M30.9912 36.8918C31.7387 36.8604 32.3214 36.279 32.2926 35.5931C32.2638 34.9073 31.6344 34.3768 30.8868 34.4082C30.1393 34.4396 29.5567 35.021 29.5855 35.7069C29.6143 36.3927 30.2436 36.9232 30.9912 36.8918Z" fill="url(#paint20_linear_10445_872)"/>
<path d="M42.6567 42.4638L42.2297 43.0725L41.6611 43.4677L41.1446 43.7122L40.6857 43.9358L39.9644 44.2681L39.4939 42.2636L39.2267 41.3947C39.2267 41.3947 39.0711 40.9335 39.0485 40.8602C39.0259 40.7869 38.9148 40.3257 38.9148 40.3257L38.8258 39.9472L39.4939 40.192L40.2512 40.5038L40.7412 40.7266L41.1446 40.9493L41.6321 41.2166L42.0776 41.4838L42.3448 41.7511L42.5219 42.1318L42.6567 42.4638Z" fill="url(#paint21_linear_10445_872)"/>
<path d="M28.2003 39.4228C28.0002 39.5337 27.8312 39.4619 27.8228 39.2623C27.8144 39.0626 27.9698 38.8109 28.1699 38.6999C28.3699 38.589 28.5389 38.6608 28.5473 38.8605C28.5557 39.0601 28.4003 39.3118 28.2003 39.4228Z" fill="#FFE680"/>
<path d="M34.3172 38.7387C34.4463 38.7333 34.5002 38.5633 34.4378 38.3589C34.3753 38.1546 34.2201 37.9934 34.091 37.9988C33.9619 38.0042 33.9079 38.1742 33.9704 38.3786C34.0329 38.5829 34.1881 38.7442 34.3172 38.7387Z" fill="#FFE680"/>
<path d="M28.275 39.3454L28.5975 39.5918L28.9177 39.7825L29.3045 39.9454L29.8397 40.0092L30.4682 39.973L30.972 39.919L31.7037 39.7955L32.4786 39.6646L33.2771 39.5251L33.8054 39.3161L34.0788 39.1015L34.3513 38.7319L34.3804 38.523L34.1878 38.4471L34.1422 38.3976L34.0073 38.7375L33.7812 38.984L33.3513 39.2174L32.7834 39.3527L32.2491 39.4505L31.4748 39.5682L30.8305 39.6467L30.1219 39.7036L29.5631 39.6834L29.1963 39.5842L28.8616 39.3764L28.5717 39.168L28.3763 38.9697L28.1683 39.127L28.275 39.3454Z" fill="#FFE680"/>
<path d="M33.4643 14.4819C31.8501 12.4855 28.5973 9.22891 27.0868 9.42371C25.5763 9.61851 23.4512 9.67212 23.4512 9.67212C23.4512 9.67212 17.9029 4.57853 16.9618 4.92346C15.895 5.31453 14.6434 6.30154 14.6434 6.30154C14.6434 6.30154 12.0205 9.53511 11.6289 9.85436C11.1528 10.2424 8.8629 12.2621 8.68422 13.2072C8.52594 14.0444 7.70025 15.0388 7.70025 15.0388C7.70025 15.0388 6.91873 16.8762 6.90012 17.2845C6.84716 18.4465 6.97522 18.4436 6.97522 18.4436L8.13014 17.3379C8.13014 17.3379 10.0006 15.7373 10.5582 15.7667C11.1074 15.7957 12.6415 15.5093 13.0139 15.4567C13.3205 15.4134 13.9202 14.7151 13.9202 14.7151L14.177 13.9322C14.177 13.9322 14.61 13.9788 13.953 15.3829C13.3473 16.6773 13.1715 17.5852 13.1715 17.5852C13.1715 17.5852 13.169 18.7623 13.9022 19.9156C14.4928 20.8446 14.4503 22.4645 14.4503 22.4645L14.8275 24.2875L15.2716 25.7359L18.5382 23.6362L19.5929 15.1277L24.5035 20.2036C24.5035 20.2036 27.5194 19.3535 31.382 18.8828C32.0121 18.806 31.9742 18.7314 31.9742 18.7314L33.4643 14.4819Z" fill="url(#paint22_linear_10445_872)"/>
<path d="M35.9149 19.0181C36.4175 18.7183 36.8953 18.3688 36.8953 18.3688L37.3328 18.0497L37.9923 17.3329L39.4562 16.4694L40.8545 15.5929L42.0616 14.8825L43.0206 14.2264L43.7374 13.5833L44.1984 13.1034L44.7309 12.7465L45.1185 12.6019L45.5276 12.5884L45.9333 12.7101L46.2768 12.9229L46.7594 13.3551L47.0494 13.7113L47.2704 14.0385L47.4586 14.4788L47.5483 14.868L47.6131 15.2612L47.6398 15.58L47.7089 15.9995L47.7569 16.3686L47.7927 16.8206L47.7366 17.2607L47.6684 17.7836L47.5834 18.2823L47.4647 18.7327L47.3288 19.4688L47.1584 19.995L46.9136 20.6951L46.7017 21.282L46.3798 21.9814L45.9534 22.6709L45.5654 23.1253L45.1524 23.5838C45.1524 23.5838 44.9344 23.8216 44.7515 23.9595C44.5685 24.0973 44.2897 24.2779 44.2897 24.2779L43.8214 24.5569L43.2465 24.8131L42.7468 25.057L42.0839 25.2469L41.3959 25.4409L40.7952 25.5398L40.1799 25.5603L40.1152 25.1675L39.9723 24.8299L39.6665 24.5642L39.3451 24.5398L39.1417 24.5603L38.8461 24.6219L38.7237 24.6743L38.6242 24.6004L38.588 24.3806L38.4804 23.992L38.4225 23.6404L38.2385 22.9715L38.1068 22.5186L37.9277 21.9612C37.9277 21.9612 37.721 21.4101 37.6273 21.198C37.4247 20.7394 37.314 20.3229 37.314 20.3229L37.1953 19.9924L37.0343 19.5611L36.8151 19.1663L36.4611 18.9687L35.9149 19.0181Z" fill="url(#paint23_linear_10445_872)"/>
<path d="M18.2313 28.5405C18.2313 28.5405 18.212 28.9538 18.2192 28.9977C18.2264 29.0417 18.2547 29.2562 18.3341 29.4303L18.3983 29.5551L18.5759 29.8381L18.6972 30.0438L18.6637 30.1059L18.3361 30.2387L18.0394 30.3778L17.7489 30.6514L17.672 30.9801L17.6584 31.1629L17.6693 31.2288L17.6801 31.2947L17.688 31.3424L17.7342 31.4251L17.7414 31.4691L17.763 31.5332L17.8303 31.6763L18.0085 31.963L18.1693 32.2112L18.0592 32.2707L17.071 32.5384L16.0197 32.7115L15.3352 32.7703L14.2588 32.9475L13.0737 33.0887L12.4522 33.2179L11.5217 33.3442L10.5448 33.3838L9.59105 33.2513L8.39684 32.8689L7.6211 32.4513L7.00911 32.0134L6.38998 31.6104L5.86584 31.1985L5.42861 30.8463L5.14422 30.5632L5.99378 31.1168L7.06736 31.5864L7.61847 31.7717L8.2393 31.9119L8.80857 31.973L9.34524 31.9924L9.81502 31.9959L10.4786 31.927L11.5692 31.6802L12.3633 31.4282L13.0447 31.1949L13.8239 30.9026L14.5574 30.5997L15.3785 30.2222L16.0102 29.898L16.6635 29.5211L17.3031 29.107L17.7074 28.8073L17.8983 28.6404L18.2313 28.5405Z" fill="url(#paint24_linear_10445_872)"/>
<path d="M38.0133 17.3875L36.8127 17.7467L35.0277 18.1482L33.1468 18.5925L31.2988 18.9237L29.809 19.0881L28.2821 19.3395L26.2924 19.7478L24.3909 20.2224L22.7501 21.0311L21.0436 22.0661L19.3579 23.0707L17.5392 24.2049L15.4668 25.5156C15.4668 25.5156 14.9912 26.3748 13.4617 26.9229C11.9321 27.4709 10.7444 27.9088 10.7444 27.9088L8.8032 28.7669L5.92629 29.5637L4.34152 29.9323C4.34152 29.9323 7.11407 33.0306 11.4583 31.7769C15.8026 30.5231 17.6837 28.9956 17.6837 28.9956L18.3912 28.518L19.2544 27.9244L20.0407 27.3748L21.0808 26.665L21.8542 26.053L22.7985 25.3858L24.1001 24.3906L25.2282 23.7471L27.0529 22.962L28.6731 22.1836L30.0645 21.5775L31.2513 20.9782L32.2017 20.6601L33.1684 20.2856L34.1895 19.929L35.0268 19.5488L35.6224 19.2622L36.2801 18.8846L36.8541 18.467L37.4738 18.0149L38.0133 17.3875Z" fill="url(#paint25_linear_10445_872)"/>
<path d="M6.85029 21.433C6.02081 21.5695 5.23244 20.9759 5.08941 20.107C4.94639 19.2382 5.50287 18.4232 6.33234 18.2866C7.16182 18.1501 7.95019 18.7437 8.09322 19.6125C8.23624 20.4814 7.67977 21.2964 6.85029 21.433Z" fill="url(#paint26_linear_10445_872)"/>
<path d="M32.8386 16.2529C32.6591 16.2555 31.6264 16.3848 31.6264 16.3848L30.1159 16.5796L28.4094 16.8336L26.3448 17.2543L25.5524 17.4386L24.5727 17.7345L23.8269 18.0458L22.8835 18.4839L24.1081 20.2634L26.1618 19.735L31.9816 18.7415L32.6911 16.6835L32.8386 16.2529Z" fill="url(#paint27_linear_10445_872)"/>
<path d="M18.729 23.4061C18.5918 23.5095 15.1984 25.8383 15.1984 25.8383L14.8115 24.5025L14.6037 23.2401L16.6067 21.8197L17.2143 21.4503L17.9799 20.9473L18.9333 20.4133L18.729 23.4061Z" fill="url(#paint28_linear_10445_872)"/>
<path d="M43.7244 36.3019L43.8778 37.4581L43.9992 38.7184L44.3753 40.279L44.4951 41.2439L44.8189 42.222L45.1056 43.8476L45.3401 44.8909L45.6993 46.3558L45.8933 47.4555L46.2289 49.0725L46.3908 50.2764L46.5763 51.3283L46.6707 52.1497L46.6572 52.6451L46.4631 52.9751L46.6116 53.2447L46.8089 53.5057L47.3421 53.954L47.7925 54.2196L48.1384 54.7502L48.3442 55.059L48.6462 55.0551L48.8976 54.7642L48.9196 54.3167L48.8269 53.7907L48.6683 53.1778L48.4845 52.4214L48.3647 51.4566L48.2956 50.7785L48.1438 49.9179L47.9466 48.2272L47.7796 47.5665L47.6109 46.6103L47.4001 45.4149L47.2298 44.1632L47.0832 42.7594L46.9061 41.7553L46.7695 40.6948L46.5604 39.795L46.3327 38.5041L46.2383 37.6827L46.1995 36.6049L46.2013 35.4707L46.1305 34.4972L46.0125 33.8278L45.7881 33.1279L45.5149 32.4366L45.3411 32.0235L45.4712 30.4723L45.5995 28.6256L45.8038 27.2092L45.6588 26.1009L45.2033 24.9487L45.146 24.9095L44.4475 24.096L43.8233 23.4173L43.2564 22.7778L42.6727 22.0427L42.2594 21.1296L41.9524 20.2471L42.1364 19.5737L42.5954 18.4574L42.7136 17.6971L42.8233 16.889L42.8672 15.9938L42.5434 15.0157L42.1317 14.3981L41.1397 13.6363L40.3518 12.8879L39.6871 12.2656L39.0865 11.4349L38.0883 10.3436L38.1059 8.45515L38.4982 6.57033L39.47 5.59923L40.4301 5.03551L42.1494 4.48577L43.619 4.52239L44.7461 4.61941L45.9237 5.00331L46.4906 5.64283L46.9765 6.39524L47.4556 7.39533L47.6647 8.29512L47.8081 9.10794L47.7135 9.71621L47.4148 10.3112L47.7354 10.6983L48.2905 10.699L48.7444 10.126L49.1156 9.37032L49.3789 8.28859L49.3318 7.16304C49.3318 7.16304 49.1952 6.10252 49.0957 5.82428C48.9962 5.54603 48.2539 4.19798 48.2539 4.19798L47.466 3.44954L45.8547 2.89561L44.7918 2.59009L42.9679 1.97504L41.986 1.55665L40.8775 1.85073L39.0704 2.76104L37.955 3.30282L36.6609 3.97476L35.4172 6.36329L35.1387 7.64489L34.7269 8.457L34.5919 9.1217L34.9309 9.9L36.2738 12.0788L37.3839 13.5099L38.1329 14.6103L39.1182 15.6197L39.6547 16.659L39.7018 17.7846L39.4706 18.7621L39.0741 19.3743L38.6117 19.8995L38.453 20.7163L38.8004 22.9721L39.4263 23.9463L40.2142 24.6947L41.0021 25.4432L41.6279 26.4174L42.0547 28.2648L42.2925 29.8991L42.4813 31.5419L42.768 33.1675L43.3736 34.8848L43.2959 35.5887L43.7244 36.3019Z" fill="url(#paint29_linear_10445_872)"/>
<path d="M43.2745 12.2482C45.1663 11.9145 46.4275 10.1002 46.0917 8.19562C45.7558 6.29109 43.9499 5.01765 42.0582 5.35128C40.1664 5.68492 38.9051 7.49929 39.241 9.40382C39.5769 11.3083 41.3828 12.5818 43.2745 12.2482Z" fill="url(#paint30_linear_10445_872)"/>
<path d="M41.0865 11.17L42.6566 11.1719L44.0144 10.3747L44.926 9.27273L44.8032 7.96969L44.6362 7.02307L45.4761 7.53729L45.8482 9.04034C45.8482 9.04034 45.7503 10.1034 45.6704 10.2569C45.5904 10.4105 44.3268 11.5397 44.3268 11.5397L42.3941 11.7063L41.0865 11.17Z" fill="#7137C8"/>
<path d="M43.269 6.14866L43.5122 8.33682L42.5935 9.19604L41.5806 9.72327L42.1389 10.4615L43.592 10.2052L44.6647 9.00504L44.604 7.44708L43.269 6.14866Z" fill="#DD55FF"/>
<path d="M42.0557 5.94432L42.8414 6.04979L43.1759 6.53108L43.4008 6.9969L43.5898 7.76532L43.8959 7.27561L43.7385 6.48418L43.114 5.7751L42.4351 5.66823L42.0557 5.94432Z" fill="white"/>
<path d="M43.7582 5.88813L44.0851 6.52768L44.1578 7.14231L43.9764 7.73209L44.3558 7.456L44.5157 7.14893L44.3845 6.40512L43.7582 5.88813Z" fill="white"/>
<path d="M41.0914 6.49648L40.6695 6.96526L40.6087 7.76476L41.0187 8.08686L41.8505 7.94016L42.3871 7.54973L42.6284 6.91558L42.372 6.31991L41.8405 6.16714L41.0914 6.49648Z" fill="white"/>
<defs>
<linearGradient id="paint0_linear_10445_872" x1="16.7285" y1="49.297" x2="25.196" y2="49.297" gradientUnits="userSpaceOnUse">
<stop stop-color="#CAAF93"/>
<stop offset="0.43" stop-color="#C6AB93"/>
<stop offset="0.85" stop-color="#BD9F96"/>
<stop offset="1" stop-color="#B89998"/>
</linearGradient>
<linearGradient id="paint1_linear_10445_872" x1="46.9945" y1="54.208" x2="37.81" y2="49.5016" gradientUnits="userSpaceOnUse">
<stop stop-color="#C5AA9C"/>
<stop offset="0.35" stop-color="#C0A39A"/>
<stop offset="0.83" stop-color="#B39296"/>
<stop offset="1" stop-color="#AD8B94"/>
</linearGradient>
<linearGradient id="paint2_linear_10445_872" x1="40.1893" y1="48.2404" x2="40.2485" y2="48.2404" gradientUnits="userSpaceOnUse">
<stop stop-color="#BD9E7B"/>
<stop offset="1" stop-color="#99BD7B"/>
</linearGradient>
<linearGradient id="paint3_linear_10445_872" x1="40.2512" y1="48.2566" x2="40.2575" y2="48.2566" gradientUnits="userSpaceOnUse">
<stop stop-color="#BD9E7B"/>
<stop offset="1" stop-color="#99BD7B"/>
</linearGradient>
<linearGradient id="paint4_linear_10445_872" x1="40.298" y1="48.2836" x2="40.3011" y2="48.2836" gradientUnits="userSpaceOnUse">
<stop stop-color="#BD9E7B"/>
<stop offset="1" stop-color="#99BD7B"/>
</linearGradient>
<linearGradient id="paint5_linear_10445_872" x1="44.7788" y1="24.261" x2="36.3661" y2="36.7411" gradientUnits="userSpaceOnUse">
<stop stop-color="#D4B3A9"/>
<stop offset="1" stop-color="#BDA099"/>
</linearGradient>
<linearGradient id="paint6_linear_10445_872" x1="45.4158" y1="31.3097" x2="37.8576" y2="29.5918" gradientUnits="userSpaceOnUse">
<stop stop-color="#D1BCA3" stop-opacity="0"/>
<stop offset="0.28" stop-color="#C3AA97" stop-opacity="0.1024"/>
<stop offset="0.62" stop-color="#B49689" stop-opacity="0.4761"/>
<stop offset="0.87" stop-color="#AA8981" stop-opacity="0.8281"/>
<stop offset="1" stop-color="#A7857E"/>
</linearGradient>
<linearGradient id="paint7_linear_10445_872" x1="29.0856" y1="29.8146" x2="32.9518" y2="56.0067" gradientUnits="userSpaceOnUse">
<stop stop-color="#CCB28F"/>
<stop offset="1" stop-color="#C3A7A0"/>
</linearGradient>
<linearGradient id="paint8_linear_10445_872" x1="19.823" y1="56.4003" x2="28.3452" y2="50.0452" gradientUnits="userSpaceOnUse">
<stop stop-color="#CBB191"/>
<stop offset="1" stop-color="#C5A99D"/>
</linearGradient>
<linearGradient id="paint9_linear_10445_872" x1="25.1223" y1="34.2244" x2="14.7536" y2="46.0262" gradientUnits="userSpaceOnUse">
<stop stop-color="#D4C0A9"/>
<stop offset="1" stop-color="#C4A89F"/>
</linearGradient>
<linearGradient id="paint10_linear_10445_872" x1="29.2814" y1="32.6242" x2="30.7963" y2="45.453" gradientUnits="userSpaceOnUse">
<stop stop-color="#DAC5A7"/>
<stop offset="0.09" stop-color="#DEC9AF"/>
<stop offset="0.46" stop-color="#F0DBCE"/>
<stop offset="0.78" stop-color="#FBE6E1"/>
<stop offset="1" stop-color="#FFEAE8"/>
</linearGradient>
<linearGradient id="paint11_linear_10445_872" x1="27.7396" y1="17.9139" x2="31.4495" y2="45.5069" gradientUnits="userSpaceOnUse">
<stop stop-color="#CCB28F"/>
<stop offset="1" stop-color="#BA9BB3"/>
</linearGradient>
<linearGradient id="paint12_linear_10445_872" x1="30.5644" y1="30.4103" x2="30.0334" y2="27.0373" gradientUnits="userSpaceOnUse">
<stop stop-color="#AD9089"/>
<stop offset="1" stop-color="#A6847C"/>
</linearGradient>
<linearGradient id="paint13_linear_10445_872" x1="30.6408" y1="27.6788" x2="31.0766" y2="29.4219" gradientUnits="userSpaceOnUse">
<stop stop-color="#675D5A"/>
<stop offset="1" stop-color="#665959"/>
</linearGradient>
<linearGradient id="paint14_linear_10445_872" x1="21.3054" y1="22.2924" x2="19.4402" y2="13.1924" gradientUnits="userSpaceOnUse">
<stop stop-color="#AB8F88"/>
<stop offset="1" stop-color="#E6C3BA"/>
</linearGradient>
<linearGradient id="paint15_linear_10445_872" x1="34.8144" y1="21.0147" x2="34.8144" y2="13.4206" gradientUnits="userSpaceOnUse">
<stop stop-color="#AB8F88"/>
<stop offset="1" stop-color="#DAB9B0"/>
</linearGradient>
<linearGradient id="paint16_linear_10445_872" x1="28.8402" y1="31.9883" x2="31.4472" y2="44.8312" gradientUnits="userSpaceOnUse">
<stop stop-color="#7037C8"/>
<stop offset="1" stop-color="#A618B9"/>
</linearGradient>
<linearGradient id="paint17_linear_10445_872" x1="27.8991" y1="42.9194" x2="10.7955" y2="38.9157" gradientUnits="userSpaceOnUse">
<stop stop-color="#7037C8"/>
<stop offset="1" stop-color="#A618B9"/>
</linearGradient>
<linearGradient id="paint18_linear_10445_872" x1="40.5484" y1="37.9635" x2="33.3155" y2="40.4538" gradientUnits="userSpaceOnUse">
<stop stop-color="#7037C8"/>
<stop offset="1" stop-color="#A618B9"/>
</linearGradient>
<linearGradient id="paint19_linear_10445_872" x1="18.8578" y1="45.8803" x2="27.6204" y2="48.9464" gradientUnits="userSpaceOnUse">
<stop stop-color="#432178"/>
<stop offset="1" stop-color="#D78AE5"/>
</linearGradient>
<linearGradient id="paint20_linear_10445_872" x1="29.5855" y1="35.7069" x2="34.3898" y2="35.0415" gradientUnits="userSpaceOnUse">
<stop stop-color="#FFE680"/>
<stop offset="1" stop-color="#D963E9"/>
</linearGradient>
<linearGradient id="paint21_linear_10445_872" x1="42.0665" y1="42.1386" x2="37.1956" y2="43.0377" gradientUnits="userSpaceOnUse">
<stop stop-color="#432079"/>
<stop offset="1" stop-color="#D88AE5"/>
</linearGradient>
<linearGradient id="paint22_linear_10445_872" x1="31.8453" y1="15.5091" x2="6.6917" y2="17.0786" gradientUnits="userSpaceOnUse">
<stop offset="0.522323" stop-color="#7137C8"/>
<stop offset="1" stop-color="#A818BA"/>
</linearGradient>
<linearGradient id="paint23_linear_10445_872" x1="46.3383" y1="17.1294" x2="37.7847" y2="24.5976" gradientUnits="userSpaceOnUse">
<stop stop-color="#442178"/>
<stop offset="1" stop-color="#D78BE5"/>
</linearGradient>
<linearGradient id="paint24_linear_10445_872" x1="10.6032" y1="33.2911" x2="28.6532" y2="31.57" gradientUnits="userSpaceOnUse">
<stop stop-color="#442178"/>
<stop offset="1" stop-color="#D78AE5"/>
</linearGradient>
<linearGradient id="paint25_linear_10445_872" x1="42.5607" y1="14.5307" x2="3.82428" y2="27.3792" gradientUnits="userSpaceOnUse">
<stop offset="0.513795" stop-color="#7137C8"/>
<stop offset="1" stop-color="#962DA4"/>
</linearGradient>
<linearGradient id="paint26_linear_10445_872" x1="8.09322" y1="19.6125" x2="3.03156" y2="20.2027" gradientUnits="userSpaceOnUse">
<stop stop-color="#FFE680"/>
<stop offset="1" stop-color="#D963E9"/>
</linearGradient>
<linearGradient id="paint27_linear_10445_872" x1="28.109" y1="18.0011" x2="28.7642" y2="21.473" gradientUnits="userSpaceOnUse">
<stop stop-color="#FFE680"/>
<stop offset="1" stop-color="#D963E9"/>
</linearGradient>
<linearGradient id="paint28_linear_10445_872" x1="11.5899" y1="21.1739" x2="17.8686" y2="26.9879" gradientUnits="userSpaceOnUse">
<stop offset="0.572222" stop-color="#FFE680"/>
<stop offset="1" stop-color="#D861E8"/>
</linearGradient>
<linearGradient id="paint29_linear_10445_872" x1="38.6263" y1="27.9519" x2="52.3186" y2="26.4131" gradientUnits="userSpaceOnUse">
<stop stop-color="#784421"/>
<stop offset="1" stop-color="#B876D8"/>
</linearGradient>
<linearGradient id="paint30_linear_10445_872" x1="42.8846" y1="9.63273" x2="37.9452" y2="6.84771" gradientUnits="userSpaceOnUse">
<stop stop-color="#9955FF"/>
<stop offset="1" stop-color="#EC95E9"/>
</linearGradient>
</defs>
</svg>
