<svg width="68" height="66" viewBox="0 0 68 66" fill="none" xmlns="http://www.w3.org/2000/svg">
<path d="M15.0227 46.2242C15.4839 47.729 16.3542 48.9247 17.8252 49.6461C18.4389 49.9471 19.1047 50.0907 19.7811 50.1963C20.4752 50.3055 21.1728 50.302 21.8705 50.2745C22.0443 50.2676 22.2182 50.2423 22.3908 50.2205C22.496 50.2067 22.5765 50.155 22.606 50.0378C21.9261 49.3187 21.3585 48.5882 20.7412 47.8255C20.4208 47.4303 19.6829 46.4516 19.6995 44.4518C19.1141 43.6684 18.2474 43.1629 17.2825 42.9711C17.0838 42.9309 16.884 42.8999 16.6818 42.8907C16.3648 42.8758 16.2608 42.9447 16.1591 43.2388C16.1094 43.3812 16.0621 43.5248 16.0267 43.6707C16.003 43.7706 15.9628 43.7683 15.8836 43.7281C15.7712 43.6707 15.6554 43.619 15.5395 43.5696C15.3597 43.4926 15.2273 43.5363 15.1386 43.7051C14.9518 44.0578 14.9009 44.6034 14.8891 44.7309C14.8264 45.4109 14.9565 46.0094 15.0227 46.2242Z" fill="url(#paint0_linear_10445_777)"/>
<path d="M15.0227 46.2242C15.4839 47.729 16.3542 48.9247 17.8252 49.6461C18.4389 49.9471 19.1047 50.0907 19.7811 50.1963C20.4752 50.3055 21.1728 50.302 21.8705 50.2745C22.0443 50.2676 22.2182 50.2423 22.3908 50.2205C22.496 50.2067 22.5765 50.155 22.606 50.0378C21.9261 49.3187 21.3585 48.5882 20.7412 47.8255C20.4208 47.4303 19.6829 46.4516 19.6995 44.4518C19.1141 43.6684 18.2474 43.1629 17.2825 42.9711C17.0838 42.9309 16.884 42.8999 16.6818 42.8907C16.3648 42.8758 16.2608 42.9447 16.1591 43.2388C16.1094 43.3812 16.0621 43.5248 16.0267 43.6707C16.003 43.7706 15.9628 43.7683 15.8836 43.7281C15.7712 43.6707 15.6554 43.619 15.5395 43.5696C15.3597 43.4926 15.2273 43.5363 15.1386 43.7051C14.9518 44.0578 14.9009 44.6034 14.8891 44.7309C14.8264 45.4109 14.9565 46.0094 15.0227 46.2242Z" fill="url(#paint1_radial_10445_777)"/>
<path d="M22.8129 65.9092C23.0624 65.923 23.3013 65.9184 23.552 65.9092C24.7652 65.8667 25.8779 65.4509 26.9599 64.965C27.5299 64.7089 28.0549 64.3884 28.522 63.9852C28.9891 63.582 29.7672 62.5562 29.9717 60.7206C29.9966 60.4955 30.0285 60.1176 30.0297 59.8155C30.0344 58.3578 30.2839 56.9472 30.8066 55.5768C31.0655 54.8968 31.3446 54.2237 31.5787 53.5344C31.6721 53.2576 31.7608 52.9808 31.7727 52.6821C31.7904 52.2203 31.5172 51.9309 31.1637 51.7815C30.8976 51.669 30.615 51.623 30.3288 51.6012C29.261 51.5162 28.1909 51.4542 27.1479 51.1877C24.7014 50.5628 24.0829 49.1499 24.025 50.7018C24.0084 51.1371 24.0214 51.5748 23.986 52.009C23.9233 52.7648 23.7294 53.4954 23.5555 54.2363C23.2304 55.617 22.6947 56.467 22.2146 57.5629C21.5347 59.1182 20.8926 60.6873 20.351 62.2932C20.1914 62.7653 20.0589 63.2431 19.9513 63.729C19.6013 65.3027 21.2249 65.7369 22.2796 65.8564C22.4345 65.8736 22.6474 65.9001 22.8153 65.9092H22.8129Z" fill="url(#paint2_linear_10445_777)"/>
<path d="M42.868 54.5981C42.6338 53.9422 42.4612 53.2794 42.2377 52.6327C41.8309 51.4611 41.0836 50.8327 40.179 50.6914C36.6351 50.1355 35.2421 51.8229 35.8499 54.2397C36.084 55.1713 36.3323 56.1017 36.5204 57.0437C36.6315 57.5973 36.7273 58.1545 36.8148 58.7116C37.0146 59.9751 37.1743 61.2456 37.5692 62.4724C38.0481 63.9588 39.045 64.9409 40.5739 65.4107C40.9949 65.5405 41.4277 65.614 41.8676 65.6611C42.5132 65.7312 43.1612 65.7323 43.8057 65.6818C44.5766 65.6209 45.3429 65.5083 46.0749 65.2441C46.4249 65.1178 46.7252 64.9271 46.8387 64.5503C46.8659 64.4584 47.1793 63.1398 46.4261 61.0652C46.1139 60.2037 45.6681 59.4042 45.2128 58.6082C44.6795 57.6754 44.0504 56.799 43.5053 55.8732C43.2653 55.4642 43.0288 55.0553 42.8656 54.597L42.868 54.5981Z" fill="url(#paint3_linear_10445_777)"/>
<path d="M43.225 29.1272C42.8573 29.0651 42.6551 29.5177 42.6338 29.7865C42.6149 30.0277 42.6492 30.2632 42.7118 30.4953C42.9602 31.4073 43.2995 32.2884 43.6744 33.1568C44.0102 33.9356 44.3188 34.7259 44.7055 35.484C44.7753 35.6195 45.2861 36.2088 45.6302 36.5511C46.8399 37.7595 48.2222 38.7486 49.7535 39.5331C50.7953 40.0673 51.908 40.3786 53.1012 40.3464C54.0472 40.3211 54.882 40.0316 55.5312 39.3332C56.0503 38.775 56.3353 38.1076 56.4831 37.3782C56.5729 36.9371 56.7929 35.8746 56.1378 34.3606C55.8623 33.7242 55.6352 33.4244 55.2592 33.3383C54.7212 33.2142 54.1784 33.1085 53.638 32.9936C52.2297 32.6938 50.8178 32.4067 49.4201 32.0575C48.3594 31.7921 47.3306 31.436 46.3539 30.9513C45.6846 30.6193 45.0271 30.2655 44.4016 29.8566C44.1545 29.6946 43.2842 29.1375 43.225 29.1272Z" fill="url(#paint4_linear_10445_777)"/>
<path d="M25.6379 24.2521C25.9654 23.2251 24.0451 27.256 23.7388 28.4058C23.5614 29.072 23.0281 30.648 22.9217 30.8858C22.2489 32.3837 21.5914 33.8873 21.0676 35.4449C20.5118 37.0991 20.0884 38.7819 19.8318 40.5038C19.7337 41.1665 19.6344 41.8293 19.6013 42.5002C19.5753 43.032 19.5516 43.5627 19.5469 44.0957C19.4381 54.8669 40.2983 56.4567 45.7307 49.6634C46.1907 49.0879 48.5746 46.3735 47.2194 40.4302C46.9108 39.0748 46.4272 37.4046 46.0843 36.4202C45.5037 34.7511 44.2467 31.4452 43.6129 29.7946C43.4449 29.3581 42.985 28.1715 42.9377 28.0509C42.6571 27.5525 42.5469 27.2886 42.4942 27.5121C42.2376 27.5477 40.6448 27.6637 40.2948 27.6373C39.7248 27.5948 39.1561 27.5489 38.5873 27.488C37.3043 27.3513 36.0319 27.1445 34.7631 26.9148C32.7541 26.5518 30.771 26.0797 28.8093 25.5237C27.8196 25.2435 26.857 25.0252 25.9654 24.5198C25.794 24.4222 25.6781 24.2556 25.6367 24.2556L25.6379 24.2521Z" fill="url(#paint5_linear_10445_777)"/>
<path d="M15.3987 21.3092C14.8193 21.2656 14.2493 21.5332 13.7953 21.9238C13.0113 22.5992 12.355 23.3895 11.7768 24.2384C11.2801 24.9678 10.8189 25.7225 10.5399 26.5553C9.92735 28.384 11.3653 30.9938 11.8051 31.8312C12.2793 32.7329 12.8505 33.576 13.4606 34.3939C13.9833 35.0935 14.5568 35.7517 15.1965 36.3536C15.5158 36.6545 15.8623 36.9222 16.2418 37.1519C17.4574 37.8871 19.5575 37.2645 20.0045 37.1324C20.9647 36.8487 21.8929 36.4845 22.7798 36.025C23.5295 35.6368 24.2863 35.2589 24.9982 34.8051C25.5717 34.441 26.1061 34.0263 26.6193 33.5829C26.8346 33.3968 26.9031 33.1809 26.8984 32.9201C26.8937 32.6594 26.9079 31.3878 26.6111 30.3574C26.3131 29.3213 25.6284 27.5799 24.9449 26.5656C24.7356 26.2543 24.524 25.9407 24.2248 25.7018C23.6099 25.2102 22.1342 24.9172 20.947 25.3882C19.4369 25.9867 18.8953 27.21 18.8622 27.2422C18.822 27.1032 18.7936 26.9688 18.7617 26.8333C18.3845 25.2125 17.7152 23.7123 16.787 22.3189C16.5895 22.0237 16.1614 21.3667 15.3987 21.3081V21.3092Z" fill="url(#paint6_linear_10445_777)"/>
<path d="M15.6226 25.0857C15.6626 25.0111 15.7071 24.9067 15.7422 24.8245C15.8642 24.5124 15.9148 24.3939 15.974 24.1528C16.1709 23.3576 16.231 22.6593 15.9555 21.9683C15.9435 21.9394 15.9364 21.9069 15.9223 21.879C15.6011 21.2271 15.2989 21.2362 14.9063 21.3281C14.5096 21.422 14.2662 21.5353 13.8395 21.898C12.8299 22.6416 12.1388 23.4779 11.5128 24.6022C11.0685 25.3996 10.8109 25.8777 10.5676 26.4966C10.5494 26.5393 10.3959 27.1072 10.3726 27.3479C10.3492 27.5886 11.534 27.6493 11.534 27.6493C11.534 27.6493 11.9905 27.6924 12.6466 27.5567C13.1589 27.45 13.6281 27.2167 14.0787 26.898C14.4779 26.6161 14.8353 26.284 15.1501 25.8921C15.3518 25.6399 15.4667 25.3823 15.6219 25.0836L15.6226 25.0857Z" fill="url(#paint7_linear_10445_777)"/>
<path d="M69.8598 29.337L69.3678 30.5327L64.5775 28.5606L65.0835 27.2529L69.8598 29.337Z" fill="#666666"/>
<path d="M54.2367 22.4808L53.7309 23.5154L49.2292 21.1858L49.6039 20.1534L54.2367 22.4808Z" fill="#666666"/>
<path d="M58.3899 14.6837L57.8485 15.5585L53.2473 13.1664L53.9228 12.4497L58.3899 14.6837Z" fill="#666666"/>
<path d="M65.1395 27.3016L64.6108 28.5275L63.8175 27.3237L65.1395 27.3016Z" fill="#666666"/>
<path d="M54.2525 22.4725L54.9298 23.3585L53.6659 23.538L54.2525 22.4725Z" fill="#CCCCCC"/>
<path d="M65.1393 27.2908L64.2931 26.2105L63.7084 27.3814L65.1393 27.2908Z" fill="#B3B3B3"/>
<path d="M64.6109 28.5275L64.3943 29.3012L63.5348 28.0169L63.8167 27.2741L64.6109 28.5275Z" fill="#CCCCCC"/>
<path d="M69.275 30.508L68.9571 31.1994L64.4049 29.3227L64.6108 28.5275L69.275 30.508Z" fill="#CCCCCC"/>
<path d="M68.8528 19.431L68.428 20.3365L67.8874 19.5271L68.8528 19.431Z" fill="#999999"/>
<path d="M68.5396 20.3864L67.9184 19.5522L67.1076 20.4103L68.5396 20.3864Z" fill="#999999"/>
<path d="M68.5387 20.3336L65.0835 27.2529L64.2373 26.1684L67.0758 20.3743L68.5387 20.3336Z" fill="#999999"/>
<path d="M73.2222 22.5322L69.7231 29.3404L65.0292 27.2545L68.4606 20.3352L73.2222 22.5322Z" fill="#B3B3B3"/>
<path d="M55.7955 22.4868L55.3829 24.0371L54.1414 22.4216L55.7955 22.4868Z" fill="#666666"/>
<path d="M58.3533 14.698L58.9316 15.6206L57.8188 15.6042L58.3533 14.698Z" fill="#666666"/>
<path d="M53.2571 13.1998L52.6406 12.6295L53.9046 12.45L53.2571 13.1998Z" fill="#666666"/>
<path d="M53.2571 13.1998L52.6312 12.6477L52.0877 13.4103L53.2571 13.1998Z" fill="#666666"/>
<path d="M49.0087 18.9183L49.6927 20.1736L48.6462 20.1911L49.0087 18.9183Z" fill="#999999"/>
<path d="M49.5815 20.1217L48.7019 20.1364L49.2703 21.1835L49.5815 20.1217Z" fill="#B3B3B3"/>
<path d="M53.3122 13.1989L49.6376 20.1746L49.0087 18.9225L52.1179 13.3812L53.3122 13.1989Z" fill="#B3B3B3"/>
<path d="M57.7628 15.5524L58.7251 16.9614L58.9214 15.6385L57.7628 15.5524Z" fill="#CCCCCC"/>
<path d="M58.7434 16.9865L55.8604 22.5179L54.0873 22.4754L57.8179 15.5515L58.7434 16.9865Z" fill="#B3B3B3"/>
<path d="M57.8179 15.5514L54.1414 22.4216L49.6376 20.1746L53.2571 13.1997L57.8179 15.5514Z" fill="#B3B3B3"/>
<path d="M54.8747 23.3594L55.5492 24.0871L54.289 24.4776L53.7202 23.4968L54.8747 23.3594Z" fill="#CCCCCC"/>
<path d="M49.2152 21.1845L49.914 22.2908L54.2896 24.485L53.6639 23.4324L49.2152 21.1845Z" fill="#CCCCCC"/>
<path d="M66.6813 21.2091L66.9471 20.6769L67.1056 20.3047L66.7738 19.9796L66.5052 19.8707L66.2951 19.7949L65.9942 19.8226L65.7902 20.0754L62.6193 26.7377L62.6135 27.0553L62.7823 27.4152L63.0276 27.5132L63.3876 27.5525L63.7087 27.3997L66.6813 21.2091Z" fill="#999999"/>
<path d="M59.9731 17.8958L60.2105 17.4269L60.1216 17.0436L59.9708 16.8698L59.624 16.7313L59.3615 16.7197L59.1168 16.7879L58.7789 16.8897L55.2622 23.4585L55.381 23.9316L55.6587 24.0444L55.9236 24.1842L56.2522 24.2268L56.5124 24.1103L56.751 23.7055L59.9731 17.8958Z" fill="#999999"/>
<path d="M60.1649 17.3595L60.3369 17.7261L60.598 17.9976L60.8496 18.314L61.2485 18.612L61.8295 19.0031L62.1116 19.1908L62.658 19.4862L63.0715 19.6877L63.5503 19.8721L64.0107 19.9446L64.668 20.0298L65.0941 20.0226L65.4052 20.0015L66.0502 19.8303L65.8331 20.0103L62.546 27.0842L62.2023 26.8689L62.1148 26.5658L61.9594 26.1355L61.6056 25.6123L61.2211 25.2019L60.7373 24.7451L60.2243 24.4811L59.5798 24.2033L58.775 24.1205L58.022 24.1812L57.285 24.2256L56.614 24.2849L56.2677 24.2106L56.6081 23.9638L57.257 22.6863L58.2484 21.0335L59.1539 19.3293L59.9542 17.8909L60.1649 17.3595Z" fill="#B3B3B3"/>
<path d="M64.6773 20.0814L65.0461 19.1897L64.4199 19.0078L63.4128 18.6238L62.4862 18.1583L61.6738 17.6589L61.5228 17.469L61.2219 18.0512L60.9572 18.5074L61.1263 18.7157L61.3854 18.9225L61.8486 19.0508L62.1151 19.3853L62.6877 19.7452L63.2414 19.8943L63.6289 19.9934L64.0695 19.986L64.6773 20.0814Z" fill="#B3B3B3"/>
<path d="M64.9915 19.1789L64.5419 18.5088L64.0283 18.2128L63.4989 17.9491L63.0856 17.7636L62.6396 17.5786L62.3104 17.504L62.0312 17.4766L61.7851 17.4648L61.4895 17.4857L61.6588 17.704L62.1045 17.9724L62.3825 18.1141L62.7169 18.3197L63.0502 18.4724L63.3285 18.6261L63.6058 18.7271L63.9943 18.8789L64.3276 19.0317L64.604 19.0798L64.9915 19.1789Z" fill="#666666"/>
<path d="M62.0368 26.3538L60.0259 30.1028L55.6276 27.9317L57.3458 24.2525L57.6441 24.1568L58.0838 24.0975L58.4693 24.091L58.7998 24.0855L59.4066 24.1274L60.015 24.2532L60.515 24.4791L60.905 24.7145L61.4088 25.1503L61.6909 25.515L61.918 25.8807L62.0368 26.3538Z" fill="#999999"/>
<path d="M59.1192 29.5166L50.3299 45.601L47.3541 44.2399L56.4504 28.1889L59.1192 29.5166Z" fill="#784421"/>
<path d="M50.3939 45.1543L50.7501 45.3113L50.9709 45.566L50.9056 45.8719L50.7662 46.1134L50.5164 46.2276L50.0665 46.0261L48.9638 45.4101L47.8048 44.7715L47.3003 44.4858L46.9451 44.2878L46.8772 43.9975L46.9218 43.7526L47.0779 43.5939L47.1962 43.4338L47.3668 43.4401L47.6667 43.5745L50.3939 45.1543Z" fill="#B3B3B3"/>
<path d="M22.7089 12.6768C23.4929 12.9858 24.2698 13.2834 25.0562 13.5579C25.9667 13.8749 26.8902 14.1552 27.8137 14.4366C27.9343 14.4734 27.9935 14.4401 28.0549 14.3459C28.3352 13.9128 28.548 13.4499 28.7349 12.9732C28.8342 12.7205 28.917 12.4632 28.9749 12.1978C29.0033 12.0669 28.9927 11.9635 28.8638 11.8774C28.6154 11.712 28.3707 11.5419 28.1507 11.3363C27.7924 11.0021 27.5547 10.6081 27.4542 10.136C27.3324 9.56391 27.3537 8.98957 27.4176 8.41293C27.6966 5.90879 24.7676 4.46604 23.5319 6.85186C23.3333 7.23552 23.1642 7.63871 22.8343 7.94311C22.8177 7.95919 22.8 7.97528 22.7822 7.99021C22.5126 8.22684 22.2406 8.15447 22.139 7.81676C22.0562 7.53992 22.0585 7.25505 22.0952 6.97362C22.1732 6.36597 22.2915 5.76291 22.3459 5.1518C22.3837 4.73598 22.405 4.32016 22.3211 3.90548C22.243 3.51493 22.003 3.2289 21.705 2.97734C21.4046 2.72578 21.0523 2.63503 20.6656 2.66949C20.3782 2.69476 20.1406 2.8349 19.9159 3.00031C19.5245 3.28749 19.3199 3.70331 19.1094 4.11339C18.841 4.63834 18.6624 5.20464 18.3503 5.71122C18.2285 5.90879 18.0062 6.04778 17.8075 6.00758C16.9679 5.83987 17.4717 4.628 17.6857 4.19725C17.9281 3.7102 18.1918 3.23235 18.4413 2.7476C18.627 2.38577 18.7298 2.00096 18.7346 1.59662C18.7393 1.12336 18.5596 0.721321 18.1622 0.444488C17.9234 0.279077 17.6289 0.20671 17.3345 0.18948C16.4973 0.140086 15.7713 0.429555 15.1138 0.909706C14.4942 1.36114 13.9975 1.92285 13.6073 2.56956C13.2786 3.11403 13.0433 3.69642 12.951 4.32935C12.873 4.86463 12.8588 5.39762 12.9794 5.92717C13.0728 6.3338 13.2656 6.70253 13.4867 7.05748C13.9053 7.72831 14.4646 8.27508 15.0878 8.76787C15.7417 9.28478 16.4441 9.73047 17.1642 10.1509C17.707 10.4679 18.2675 10.7528 18.8351 11.0273C19.9005 11.5442 20.9919 12.0014 22.0964 12.4333C22.2974 12.5126 22.4984 12.5941 22.7089 12.6768Z" fill="url(#paint8_linear_10445_777)"/>
<path d="M22.7089 12.6768C23.4929 12.9858 24.2698 13.2834 25.0562 13.5579C25.9667 13.8749 26.8902 14.1552 27.8137 14.4366C27.9343 14.4734 27.9935 14.4401 28.0549 14.3459C28.3352 13.9128 28.548 13.4499 28.7349 12.9732C28.8342 12.7205 28.917 12.4632 28.9749 12.1978C29.0033 12.0669 28.9927 11.9635 28.8638 11.8774C28.6154 11.712 28.3707 11.5419 28.1507 11.3363C27.7924 11.0021 27.5547 10.6081 27.4542 10.136C27.3324 9.56391 27.3537 8.98957 27.4176 8.41293C27.6966 5.90879 24.7676 4.46604 23.5319 6.85186C23.3333 7.23552 23.1642 7.63871 22.8343 7.94311C22.8177 7.95919 22.8 7.97528 22.7822 7.99021C22.5126 8.22684 22.2406 8.15447 22.139 7.81676C22.0562 7.53992 22.0585 7.25505 22.0952 6.97362C22.1732 6.36597 22.2915 5.76291 22.3459 5.1518C22.3837 4.73598 22.405 4.32016 22.3211 3.90548C22.243 3.51493 22.003 3.2289 21.705 2.97734C21.4046 2.72578 21.0523 2.63503 20.6656 2.66949C20.3782 2.69476 20.1406 2.8349 19.9159 3.00031C19.5245 3.28749 19.3199 3.70331 19.1094 4.11339C18.841 4.63834 18.6624 5.20464 18.3503 5.71122C18.2285 5.90879 18.0062 6.04778 17.8075 6.00758C16.9679 5.83987 17.4717 4.628 17.6857 4.19725C17.9281 3.7102 18.1918 3.23235 18.4413 2.7476C18.627 2.38577 18.7298 2.00096 18.7346 1.59662C18.7393 1.12336 18.5596 0.721321 18.1622 0.444488C17.9234 0.279077 17.6289 0.20671 17.3345 0.18948C16.4973 0.140086 15.7713 0.429555 15.1138 0.909706C14.4942 1.36114 13.9975 1.92285 13.6073 2.56956C13.2786 3.11403 13.0433 3.69642 12.951 4.32935C12.873 4.86463 12.8588 5.39762 12.9794 5.92717C13.0728 6.3338 13.2656 6.70253 13.4867 7.05748C13.9053 7.72831 14.4646 8.27508 15.0878 8.76787C15.7417 9.28478 16.4441 9.73047 17.1642 10.1509C17.707 10.4679 18.2675 10.7528 18.8351 11.0273C19.9005 11.5442 20.9919 12.0014 22.0964 12.4333C22.2974 12.5126 22.4984 12.5941 22.7089 12.6768Z" fill="url(#paint9_linear_10445_777)"/>
<path d="M50.1568 3.10487C49.4532 3.38745 49.4284 4.32018 49.4178 4.69351C49.3953 5.43786 49.497 6.17876 49.4721 6.92196C49.4615 7.239 49.4237 7.55833 49.2179 7.82253C48.9885 8.11774 48.6018 8.19126 48.2908 7.9328C47.9503 7.64908 47.7327 7.2792 47.5033 6.91621C47.2573 6.52681 46.9747 6.16957 46.5573 5.93179C46.0335 5.63313 45.4753 5.74341 45.1052 6.22011C44.8072 6.60492 44.6701 7.04946 44.5648 7.50894C44.4312 8.08902 44.3614 8.68175 44.1994 9.25724C43.983 10.028 43.5148 10.592 42.7887 10.9619C42.2625 11.2295 41.7209 11.4524 41.1273 11.5305C40.8258 11.5707 40.5254 11.65 40.2168 11.5741C40.1246 11.5512 40.0773 11.5764 40.1092 11.6879C40.2499 12.1806 40.2712 12.6895 40.3138 13.1961C40.3563 13.7084 40.3729 14.2219 40.3658 14.7353C40.3646 14.8284 40.4119 14.8364 40.4793 14.818C41.1273 14.6377 41.7777 14.4619 42.4233 14.2713C43.7737 13.8727 45.1159 13.4442 46.4521 13.0031C47.9538 12.508 49.4438 11.9785 50.9242 11.4225C51.9518 11.0366 52.9652 10.6219 53.9443 10.1302C54.8442 9.67766 55.7039 9.16305 56.4642 8.50829C57.2222 7.85584 57.7969 7.08392 57.9991 6.09376C58.1173 5.51597 58.0653 4.94622 57.908 4.38221C57.7023 3.64476 57.3002 3.01528 56.7693 2.45816C56.249 1.91254 55.6554 1.468 54.9305 1.21069C54.5048 1.06021 54.0685 0.977506 53.6132 1.09352C53.1225 1.21873 52.8387 1.56678 52.8233 2.05727C52.8079 2.52134 52.9558 2.9521 53.0799 3.3886C53.2064 3.83429 53.3625 4.27309 53.4347 4.73141C53.4761 4.99331 53.4512 5.25062 53.3554 5.50218C53.2242 5.84334 52.9487 5.78591 52.7334 5.61705C52.5301 5.45623 52.3976 5.23454 52.2723 5.01169C52.0559 4.62918 51.901 4.21795 51.6716 3.84118C51.4658 3.50347 51.2021 3.23582 50.8155 3.09454C50.5967 3.01413 50.385 3.01298 50.158 3.10372L50.1568 3.10487Z" fill="url(#paint10_linear_10445_777)"/>
<path d="M42.59 27.4742C42.551 27.2054 42.5002 26.9516 42.5605 26.6862C42.7319 25.9316 43.1848 25.5203 43.983 25.4123C44.4678 25.3469 44.9538 25.3641 45.4398 25.3963C46.4875 25.4652 47.5328 25.5215 48.5793 25.348C49.9818 25.116 51.0602 24.4061 51.882 23.2965C52.4662 22.5073 52.9652 21.6734 53.1721 20.7108C53.6498 18.4766 53.1627 16.4744 51.5675 14.7744C50.4737 13.6084 49.0949 12.8997 47.5186 12.5517C46.8907 12.4127 46.2605 12.4655 45.6349 12.6056C44.8746 12.7768 44.1344 13.018 43.3799 13.2087C42.875 13.3362 42.3595 13.4005 41.838 13.4143C41.6819 13.4189 41.527 13.4086 41.3721 13.3867C41.1959 13.3626 41.0552 13.2845 40.9381 13.1513C40.6082 12.7768 40.4462 12.3334 40.335 11.8613C40.2345 11.4328 40.1399 10.9986 39.9164 10.6081C39.7887 10.3841 39.6196 10.1934 39.4127 10.036C38.8652 9.61906 38.242 9.73737 37.7631 10.0877C37.4758 10.2979 37.3114 10.6023 37.1269 10.8907C36.9921 11.1009 36.855 11.3099 36.7225 11.5224C36.3394 12.1358 35.7505 12.3977 35.0422 12.446C34.717 12.4678 34.3907 12.4667 34.0679 12.4023C33.7214 12.3334 33.4482 12.168 33.2578 11.8728C32.9658 11.4168 32.6654 10.9653 32.371 10.5104C32.1073 10.1027 31.8022 9.73048 31.386 9.45709C30.4459 8.84025 29.3296 9.13776 28.8472 10.1394C28.6166 10.6196 28.4593 11.1296 28.4841 11.6568C28.5267 12.5781 28.2678 13.4258 27.9307 14.2666C27.5192 15.2936 27.0675 16.3056 26.7329 17.3612C26.3332 18.6179 26.0009 19.8906 25.8484 21.2001C25.7798 21.7928 25.7609 22.3902 25.7195 22.9863C25.6947 23.339 25.6734 23.6916 25.645 24.0443C25.6225 24.3154 25.7065 24.5382 25.9193 24.7197C26.2753 25.0229 26.6879 25.2389 27.1113 25.433C29.4455 26.5002 31.9051 27.1767 34.4356 27.6224C35.87 27.8751 37.315 28.0336 38.7718 28.0945C39.661 28.1324 40.5491 28.1416 41.4371 28.0853C41.6547 28.0716 41.8687 28.0371 42.0898 27.9739C42.3299 27.8717 42.5167 27.7304 42.5936 27.4765L42.59 27.4742Z" fill="url(#paint11_linear_10445_777)"/>
<path d="M49.4899 24.2246C49.6921 24.1982 49.8305 24.058 49.9735 23.9409C50.4241 23.5721 50.942 23.3769 51.5321 23.4343C51.7213 23.4527 51.8182 23.3998 51.9116 23.2654C52.0192 23.1092 52.1162 22.9553 52.2297 22.8037C52.2699 22.7508 52.2936 22.7244 52.212 22.7083C51.2033 22.5039 50.2751 22.6417 49.4686 23.3079C49.387 23.3746 49.3232 23.3769 49.2333 23.3194C48.9637 23.1471 48.7378 22.9243 48.4872 22.729C48.1159 22.4395 47.689 22.2787 47.2195 22.2121C46.6141 22.1259 46.0477 21.9433 45.609 21.5034C45.2105 21.1036 45.1596 20.8004 45.1596 20.6097C45.1596 20.3845 45.0201 20.2088 44.8214 20.1996C43.9606 20.1594 44.3343 22.0662 46.1163 22.7681C46.4805 22.9116 46.8636 22.9668 47.2444 23.038C47.5967 23.1035 47.8912 23.2677 48.1525 23.5044C48.4363 23.7605 48.7319 24.0029 49.0926 24.1534C49.1482 24.1764 49.2049 24.1982 49.27 24.2166C49.3397 24.2361 49.4095 24.2361 49.4887 24.2257L49.4899 24.2246Z" fill="#773A2D"/>
<path d="M48.3841 20.0562C48.1547 20.0952 48.014 20.3663 48.1287 20.5937C48.286 20.9073 48.3782 21.2439 48.5402 21.5517C48.701 21.855 49.0156 22.0124 49.3396 21.9366C50.12 21.7551 50.0692 20.9383 49.6648 20.5455C49.5299 20.4145 49.4294 20.341 49.2733 20.2457C49.1173 20.1503 48.7755 19.9884 48.3853 20.0562H48.3841Z" fill="#B05C65"/>
<path d="M48.3299 20.0698C48.5687 20.1583 48.8502 20.2685 48.9968 20.4914C49.0843 20.6235 49.0949 20.7751 49.1328 20.921C49.1824 21.1094 49.2416 21.2955 49.4225 21.4069C49.5821 21.5045 49.8162 21.4953 49.9463 21.3081C50.0764 21.1209 49.9581 20.8291 49.8056 20.6327C49.5443 20.2984 49.1919 20.079 48.7709 20.0135C48.616 19.9894 48.4765 20.0101 48.3299 20.0698Z" fill="#773A2D"/>
<path d="M33.2969 18.2698C33.1527 18.8235 33.1929 19.3496 33.524 19.8252C33.8811 20.3386 34.5078 20.3398 34.8791 19.8355C35.3001 19.2646 35.2871 18.3135 34.8507 17.7495C34.5066 17.3038 33.9083 17.3004 33.5606 17.7438C33.4388 17.8988 33.349 18.07 33.2969 18.2698Z" fill="#352420"/>
<path d="M33.6812 16.4848C34.3055 17.0052 35.028 17.3819 35.7257 17.7955C36.032 17.977 36.3501 18.1389 36.6634 18.3101C36.7001 18.3308 36.7391 18.348 36.7769 18.3652C36.8952 18.4204 37.0406 18.4583 37.1352 18.3733C37.2346 18.2848 37.2251 18.1562 37.205 18.0378C37.1695 17.8345 37.0891 17.6427 37.0134 17.4509C36.6811 16.6054 36.311 15.7784 35.8026 15.0156C35.6973 14.8571 35.5791 14.7078 35.4525 14.5654C35.138 14.2104 34.84 14.1622 34.6142 14.1622C34.2783 14.1622 34.1104 14.3885 34.0679 14.6917C34.0548 14.7825 34.0194 14.7997 33.9378 14.7526C33.7923 14.6699 33.6327 14.6239 33.4648 14.6274C33.1219 14.6343 32.9268 14.8146 32.8771 15.1742C32.8085 15.667 33.3264 16.1908 33.68 16.486L33.6812 16.4848Z" fill="#AF5C65"/>
<path d="M39.1887 5.82043L38.9873 6.20544C38.9873 6.20544 38.6914 6.68051 38.638 6.7496C38.5659 6.843 38.0897 7.53262 38.0897 7.53262L37.5354 8.16362C37.5354 8.16362 36.9099 8.82127 36.8006 8.9254C36.6913 9.02954 35.2514 10.3741 35.2514 10.3741L34.5213 10.8915C34.5213 10.8915 33.3424 11.5418 33.2493 11.5893C33.1563 11.6368 32.0043 12.1381 32.0043 12.1381C32.0043 12.1381 30.55 12.6416 30.4514 12.6533C30.3528 12.665 29.6693 12.7797 29.6693 12.7797L30.0683 14.3734L30.2123 14.9763L30.3212 15.6745L40.4237 13.1641L39.1887 5.82043Z" fill="url(#paint12_linear_10445_777)"/>
<path d="M40.392 13.18L43.8026 13.5619L43.5235 12.2076L43.329 11.6327L43.0497 11.1122L42.6306 10.5593L42.2665 10.1029L41.657 9.26281C41.657 9.26281 41.2274 8.69398 41.0327 8.422C40.7094 7.97025 40.406 7.52677 40.406 7.52677L39.8933 6.78611L39.1693 5.77338C39.1693 5.77338 39.8141 9.71405 39.8861 10.1713C39.9496 10.574 40.1554 11.6252 40.1554 11.6252L40.392 13.18Z" fill="url(#paint13_linear_10445_777)"/>
<path d="M38.4126 7.06416L37.2812 6.32297L36.1242 5.94042L33.8783 5.74915L32.4491 5.9723L30.0331 7.02431L29.0462 7.85317L28.0254 8.96894L27.7191 9.44713L27.4345 10.0526L27.5447 10.5276L27.7651 10.897L28.0254 11.2664L28.1955 11.7743L28.3657 12.1569V12.7865L28.2264 13.4828L28.0956 13.8523L27.8752 14.1161L27.6511 14.1689L27.3101 14.2217L26.8837 14.1689L26.2777 13.9578L25.837 13.7995L25.3412 13.6412L24.7903 13.4828L24.6988 14.0876L25.1502 14.9368L25.2746 15.2604L25.531 15.6857L25.7916 16.1639L26.1195 16.684L26.4151 17.2981L26.7106 17.6681L27.207 17.567L27.8893 17.1619L28.74 16.6199L29.4205 16.1736L30.0331 15.823L30.3393 15.6317L30.1947 14.771L29.948 13.7349L29.7693 13.0415L29.7353 12.7865L30.0926 12.7068L30.6286 12.635L31.2326 12.4119L31.8366 12.2047L32.5852 11.9178L33.4189 11.5432L34.0229 11.1845L34.6695 10.81L35.231 10.4513L35.7839 9.91735L36.3199 9.42322L36.7793 8.97691L37.3067 8.43497L37.7831 7.90099L38.1064 7.55032L38.4126 7.06416Z" fill="url(#paint14_linear_10445_777)"/>
<path d="M46.1967 32.974L45.0398 33.229L43.8147 33.6116L43.3383 35.7156L40.4118 33.7391L38.9146 33.6116L37.009 33.3565L35.0183 33.3246C35.0183 33.3246 33.2658 33.4203 32.9936 33.3565C32.7214 33.2928 31.2241 33.3565 31.2241 33.3565L29.5907 33.4203V32.2089L29.931 31.0612L32.0607 31.4026L34.4909 31.635L36.6687 31.7626L39.5271 31.8901L42.3175 32.5914L44.2911 31.38L45.312 31.1887L46.1967 32.974Z" fill="url(#paint15_linear_10445_777)"/>
<path d="M46.1005 32.9462L47.23 35.3066L48.0425 36.9681L48.7149 38.3934L46.1287 40.8799L28.8421 39.3497L29.5907 33.3667L31.8483 33.303L33.5697 33.2952L36.0197 33.2353L37.6407 33.3629L38.8658 33.6108L40.4318 33.7042L43.2861 35.6356L43.79 33.607L44.9634 33.2508L46.1005 32.9462Z" fill="url(#paint16_linear_10445_777)"/>
<path d="M46.1046 40.8001L46.7096 50.5487L40.3803 50.0017L37.0199 49.4212L32.9434 48.524L30.1339 47.6797L28.706 45.4068L28.8056 39.2248L34.9549 39.8585L37.9693 40.1019L41.6004 40.3982L44.5991 40.706L46.1046 40.8001Z" fill="url(#paint17_linear_10445_777)"/>
<path d="M48.6667 38.4481C46.3528 40.6158 46.1403 40.7736 46.1403 40.7736L46.6731 50.635L48.919 47.7021L48.6667 38.4481Z" fill="url(#paint18_linear_10445_777)"/>
<path d="M32.062 31.4256L31.327 29.9618L30.471 28.9032L29.2121 27.7387L28.2553 26.8918L27.0972 26.1508L26.2411 25.7803L25.5865 25.5157L24.9319 25.304L24.625 26.1508L25.8887 26.8918L26.7447 27.4741L27.6007 27.9504L28.4064 28.7973L28.91 29.4854L29.6381 30.4229L29.9135 31.0562L32.062 31.4256Z" fill="url(#paint19_linear_10445_777)"/>
<path d="M45.3715 31.239L44.5782 30.0317L44.0488 29.4005L43.2449 28.9453L43.7407 30.1591L43.9045 30.5285L44.2365 31.3729L45.3715 31.239Z" fill="url(#paint20_linear_10445_777)"/>
<path d="M28.7866 39.3866L25.5142 39.4542L22.2417 39.1837L20.0527 38.9194L19.7773 40.1859L22.4342 40.5362L24.6479 40.8067L26.6691 41.0773H28.7866V39.3866Z" fill="url(#paint21_linear_10445_777)"/>
<path d="M39.061 7.16937L39.9371 12.7569L39.2036 12.9625L38.5158 8.11707L39.061 7.16937Z" fill="url(#paint22_linear_10445_777)"/>
<path d="M38.1084 8.39142L38.7834 13.0405L37.9349 13.2967L37.3732 9.08135L38.1084 8.39142Z" fill="url(#paint23_linear_10445_777)"/>
<path d="M36.9749 9.36743L37.6385 13.3523L36.8899 13.5755L36.4176 9.89457L36.9749 9.36743Z" fill="url(#paint24_linear_10445_777)"/>
<path d="M36.0732 10.0847L36.5666 13.7349L35.8649 13.8931L35.4748 10.6503L36.0732 10.0847ZM35.1722 10.7722L35.5465 13.9602L34.7597 14.1503L34.5227 11.29L35.1722 10.7722Z" fill="url(#paint25_linear_10445_777)"/>
<path d="M39.8022 7.13214L40.3873 7.9752L41.0878 12.7796L40.6521 12.7178L39.8022 7.13214Z" fill="url(#paint26_linear_10445_777)"/>
<path d="M40.5985 8.39734L41.1522 9.10851L41.7668 12.8931L41.2901 12.8181C41.2457 12.8111 40.5985 8.39734 40.5985 8.39734Z" fill="url(#paint27_linear_10445_777)"/>
<path d="M41.3467 9.28558L41.7195 9.79706L42.2593 12.9746L41.8729 12.907L41.3467 9.28558Z" fill="url(#paint28_linear_10445_777)"/>
<path d="M41.9124 10.027L42.2082 10.4406L42.6444 13.0832L42.3791 13.0117L41.9124 10.027Z" fill="url(#paint29_linear_10445_777)"/>
<path d="M30.7399 5.74912L30.3655 4.98402L29.8891 4.53771C29.8891 4.53771 29.5488 4.28268 29.3787 4.21892C29.2086 4.15516 28.9363 4.05953 28.8002 4.02765C28.6641 3.99577 27.1328 3.90013 27.1328 3.90013L26.3161 3.99577C26.3161 3.99577 26.0439 3.93201 25.8397 3.90013C25.6355 3.86825 25.2953 3.74073 25.2953 3.74073L24.8529 3.42194L24.5466 3.10315L24.8869 3.80449L25.2272 4.05953L25.7376 4.37832C25.7376 4.37832 26.146 4.56959 26.3842 4.66523C26.6224 4.76087 26.0779 4.88838 26.0779 4.88838L25.3973 4.85651L24.7848 5.11154L24.4445 5.36657L24.1383 5.68536L23.5233 6.35849L23.9089 6.04185L24.4105 5.781L24.8529 5.68536L25.2953 5.62161L25.6355 5.781L26.214 6.03604L26.8286 6.41126L27.2142 7.04453L27.3795 7.51949L27.4345 7.99445V8.41663L28.0176 7.66187L28.3919 7.3112L28.7322 6.99241L29.1405 6.67362L29.4808 6.41859L29.9572 6.22731L30.2975 6.00415L30.7399 5.74912Z" fill="url(#paint30_linear_10445_777)"/>
<path d="M21.4306 12.1107L21.0937 12.8771L20.4681 13.7337L19.4575 14.1395L18.2544 14.1846L17.6288 13.9592L18.1101 14.5002L18.88 14.5903L19.6981 14.6805L20.6606 14.6354L20.0831 15.4019L19.5538 16.3937C19.5538 16.3937 19.5057 17.2503 19.5538 17.4757C19.6019 17.7011 19.9388 18.5126 19.9388 18.5126L20.5163 19.6397L20.7088 21.3079L19.7463 21.8939L20.6606 21.7587L21.2381 21.2628C21.2381 21.2628 21.575 20.4963 21.5269 20.316C21.4787 20.1357 21.3344 19.4594 21.2862 19.234C21.2381 19.0086 20.9975 18.4676 20.9494 18.2421C20.9012 18.0167 20.7569 17.1601 20.805 16.9798C20.8531 16.7995 21.2381 15.8978 21.2381 15.8978L22.2006 15.1313L23.1149 14.5002L23.8849 14.1395L24.4143 13.328L21.4306 12.1107Z" fill="url(#paint31_linear_10445_777)"/>
<path d="M38.2319 6.95984L38.1723 5.86798L35.5181 5.10288L34.3611 5.03912L33.3062 5.071L32.3194 5.2304L31.4687 5.42167L29.461 6.25053L28.6443 6.82436L27.8616 7.63728L27.4409 8.33428L27.3308 9.23142L27.4409 10.0758L29.0356 7.91622L29.8693 7.21488L30.737 6.74466L31.6133 6.37008L32.7447 5.97956L33.4849 5.86798L34.242 5.80423L36.7091 6.17083L37.3386 6.40196L38.2319 6.95984Z" fill="url(#paint32_linear_10445_777)"/>
<path d="M27.2552 20.7778L27.9658 21.235L28.8499 21.5623L30.3642 21.6427L31.9433 21.6211L33.2816 21.4056L33.7944 21.5724L34.3731 21.8077L34.8111 22.2069L35.0316 22.662L35.3745 23.5547L35.585 24.1403L35.7084 24.7483L35.8986 25.5949L35.936 26.3955L36.0392 27.2645L36.0777 28.2353L36.105 29.1664L36.1526 29.8365L36.1688 30.7278L36.184 31.4488L36.1273 32.9131L36.1223 33.8952L35.9342 35.2227L35.8421 36.2271L35.6884 37.8443L35.6187 38.9282L35.4842 40.1141L35.1868 41.3844L34.9238 42.9443L34.5415 44.5776L34.1045 46.1822L33.6868 47.3554L33.2802 48.5685L32.7977 49.8437L32.0987 51.345L31.6364 52.3591L30.9354 53.5198L30.0817 54.6344L29.2057 55.6694L28.6109 56.3764L27.7107 56.9913L26.4462 56.8042L25.3547 56.4021L24.3401 56.1082L22.931 55.4038L21.969 54.7979L21.0181 54.2318L19.8153 53.4319L18.9181 52.7241L17.4402 51.4404L15.9066 49.9579L14.9537 49.0511L13.7377 47.8708L12.9699 46.9592L12.19 45.8376L11.4991 45.0341L10.6109 44.0255L10.007 43.1998L9.46884 42.4424L8.98527 41.7137L8.47949 40.9055L7.91906 40.0686L7.08446 38.9183L6.61103 38.0591L5.7087 36.4998L5.22413 35.6007L4.48668 34.2975L4.02337 33.3078L3.76947 32.7334L3.52361 31.6878L3.29904 30.5515L3.46792 29.6553L3.81389 29.2254L4.57355 28.7745L5.20276 28.3572L5.8552 28.1897L6.72414 27.7961L7.34319 27.5092L8.09176 27.0186L8.75227 26.38L9.33594 25.6332L9.76785 25.0106L9.82952 24.3978L9.86999 23.8757L9.67073 23.3299L9.37327 22.7667L8.81591 22.4407L8.20391 22.0861L7.50592 21.9241L7.1458 21.8033L7.81464 21.1193L8.26026 20.9446L9.43689 20.6727L10.1443 20.4912L11.2823 20.199L12.2665 19.9464L13.2887 19.5936L13.8416 19.3311L14.3029 19.2126L14.8473 18.8015L15.3222 18.3781L15.7435 17.9986L15.9416 17.6462L16.1926 17.1295L16.4129 16.6207L16.9537 16.904L17.5181 17.2717L18.1125 17.5111L18.6447 17.6459L19.3085 17.8976L19.7476 17.9356L20.3327 17.9061L20.9865 17.7684L21.8706 17.5113L22.7318 17.2903L23.6316 17.0895L24.5779 16.937L25.4391 16.716L26.0464 16.5299L26.5235 16.4677L26.9248 16.606L27.1258 16.7353L26.6494 16.9179L26.1751 17.3007L25.6629 17.6946L25.2497 18.0257L25.1625 18.3923L25.3078 18.9316L25.627 19.2821L25.9158 19.6852L26.2772 20.0286L26.8166 20.4652L27.2552 20.7778Z" fill="url(#paint33_linear_10445_777)"/>
<path d="M31.9859 23.3273L32.2437 23.3063L32.5245 23.2492L32.7977 23.2243L33.0988 23.3581L33.331 23.5397L33.4672 23.7912L33.6015 24.3296L33.6698 24.8096L33.7499 25.3318L33.8189 25.9322L33.8994 26.5146L33.9842 27.1712L34.0972 28.0468L34.1394 28.6691L34.1817 29.2915L34.2242 29.974L34.2364 30.7247L34.2854 31.1946L34.2886 31.7365L34.2883 32.3245L34.2876 32.8524L34.2604 33.4624L34.2297 34.1185L34.1996 34.8951L34.1385 35.6194L34.0853 36.3718L33.9547 37.0837L33.8475 37.8198L33.7012 38.4755L33.5778 39.0951L33.4441 39.9134L33.2982 40.6293L33.1451 41.4374L32.961 42.1933L32.7685 42.8608L32.5769 43.6487L32.3348 44.3742L31.9854 45.1875L31.622 46.2457L31.41 46.8428L31.1947 47.5464L30.8978 48.1352L30.4919 49.159L29.9902 50.2526L29.5793 51.0817L28.9845 52.0787L28.4699 52.9495L27.9392 53.7038L27.4192 54.3197L27.0866 54.7217L25.9214 54.3273L25.3381 54.0097L24.4268 53.5803L23.7931 53.2002L22.7416 52.5052L22.0613 52.0768L21.1683 51.4768L20.1894 50.6879L19.4079 50.0744L18.4294 49.3456L17.4691 48.4463L16.3737 47.4762L15.2589 46.496L14.5418 45.7001L13.8558 44.9565L13.0454 44.0037L12.1419 42.9541L11.4202 42.0238L10.5353 40.8639L9.98026 40.1169L9.16018 38.8349L8.4445 37.6316L7.78286 36.4446L7.28823 35.5012L6.70774 34.3687L6.24026 33.4636L5.93987 32.8019L5.69415 32.277L5.42484 31.6677L5.35973 31.0814L5.54925 30.5805L6.15867 30.1075L6.82279 29.7711L7.63998 29.2749L8.42681 28.8468L9.02118 28.438L9.43819 27.9842L9.88559 27.4623L10.3176 26.9444L10.9067 26.2806L11.3722 25.5882L11.4888 25.121L11.6272 24.4372L11.589 23.8289L11.4777 23.2545L11.3365 22.8083L11.0211 22.2108L10.9498 21.8974L11.6304 21.7377L12.3381 21.6164L13.1106 21.3729L13.8835 21.1894L14.9482 20.8709L15.5118 20.47L15.9671 19.9762L16.4627 19.1555L16.8218 18.6713L16.9051 18.4389L17.4884 18.7565L18.2184 19.1269L19.1172 19.3937L20.0996 19.4883L20.8421 19.3731L21.8456 19.1305L23.0794 18.7686L23.3637 18.6654L23.4196 18.9828L23.4983 19.2641L23.798 19.8053L24.264 20.4696L24.7915 21.1182L25.3916 21.6727L25.9371 22.0905L26.8637 22.516L27.5815 22.784L28.2414 23.0217L29.1773 23.0679L30.1447 23.2266L31.2967 23.338L31.9859 23.3273Z" fill="url(#paint34_linear_10445_777)"/>
<path d="M56.9069 36.7029C56.9069 36.9668 56.8112 37.3614 56.7416 37.5473C56.6791 37.714 56.6039 37.8111 56.5212 37.9695C56.4111 38.1805 56.2718 38.3838 56.0805 38.7083C55.8051 39.1754 55.75 39.2064 55.5296 39.3943C55.2202 39.6582 55.1991 39.711 54.9788 39.8694C54.3177 40.1859 54.5931 40.1332 53.654 40.3125C52.8413 40.3975 52.0532 40.3145 51.3209 39.98C50.7402 39.715 50.31 39.3019 50.1213 38.6633C49.9703 38.1528 49.9986 37.6305 50.1313 37.1025C50.2113 36.7832 50.4018 36.0129 51.2757 35.1693C51.6432 34.8148 51.8768 34.6733 52.1372 34.7141C52.5101 34.772 52.8804 34.8435 53.2519 34.9081C54.2204 35.0764 54.8583 34.9235 55.2542 34.9614C55.8051 35.0142 56.1356 35.0458 56.1356 35.0458C56.6542 34.9986 56.5911 35.5001 56.7214 35.8113C56.8518 36.1225 56.9069 36.5603 56.9069 36.7029Z" fill="url(#paint35_linear_10445_777)"/>
<defs>
<linearGradient id="paint0_linear_10445_777" x1="20.2659" y1="49.7392" x2="15.7695" y2="42.985" gradientUnits="userSpaceOnUse">
<stop stop-color="#B17C79"/>
<stop offset="0.135" stop-color="#BC867E"/>
<stop offset="0.435" stop-color="#BC867E"/>
<stop offset="1" stop-color="#D7A089"/>
</linearGradient>
<radialGradient id="paint1_radial_10445_777" cx="0" cy="0" r="1" gradientUnits="userSpaceOnUse" gradientTransform="translate(20.8801 46.3539) rotate(170.959) scale(6.26503 28.768)">
<stop stop-color="#9A6372"/>
<stop stop-color="#9B6473" stop-opacity="0.8281"/>
<stop offset="0.4" stop-color="#AE757E" stop-opacity="0.4481"/>
<stop offset="0.76" stop-color="#B77C84" stop-opacity="0.0784"/>
<stop offset="1" stop-color="#C8908E" stop-opacity="0"/>
</radialGradient>
<linearGradient id="paint2_linear_10445_777" x1="28.3474" y1="51.8461" x2="23.2843" y2="67.0656" gradientUnits="userSpaceOnUse">
<stop stop-color="#C1817B"/>
<stop offset="1" stop-color="#E8A89B"/>
</linearGradient>
<linearGradient id="paint3_linear_10445_777" x1="38.9084" y1="53.5559" x2="40.2176" y2="68.4331" gradientUnits="userSpaceOnUse">
<stop stop-color="#C1817B"/>
<stop offset="1" stop-color="#E8A89B"/>
</linearGradient>
<linearGradient id="paint4_linear_10445_777" x1="56.6165" y1="39.3591" x2="43.2286" y2="36.4351" gradientUnits="userSpaceOnUse">
<stop stop-color="#BA7877"/>
<stop offset="1" stop-color="#A16060"/>
</linearGradient>
<linearGradient id="paint5_linear_10445_777" x1="34.2661" y1="21.4807" x2="32.7076" y2="66.6657" gradientUnits="userSpaceOnUse">
<stop offset="0.395" stop-color="#BE8377"/>
<stop offset="1" stop-color="#D96897"/>
</linearGradient>
<linearGradient id="paint6_linear_10445_777" x1="26.8952" y1="29.404" x2="-1.88361" y2="29.404" gradientUnits="userSpaceOnUse">
<stop stop-color="#C1817B"/>
<stop offset="1" stop-color="#E8A89B"/>
</linearGradient>
<linearGradient id="paint7_linear_10445_777" x1="11.7383" y1="27.2858" x2="15.4292" y2="22.8007" gradientUnits="userSpaceOnUse">
<stop stop-color="#BA7877"/>
<stop offset="1" stop-color="#A16060"/>
</linearGradient>
<linearGradient id="paint8_linear_10445_777" x1="19.9644" y1="10.3841" x2="22.4727" y2="4.57286" gradientUnits="userSpaceOnUse">
<stop stop-color="#F4C198"/>
<stop offset="0.87" stop-color="#F8B5A2"/>
<stop offset="1" stop-color="#F9B3A5"/>
</linearGradient>
<linearGradient id="paint9_linear_10445_777" x1="18.2072" y1="6.6428" x2="28.2793" y2="8.27404" gradientUnits="userSpaceOnUse">
<stop stop-color="#F5C298" stop-opacity="0"/>
<stop offset="0.09" stop-color="#F5C198" stop-opacity="0.01"/>
<stop offset="0.25" stop-color="#F5BF9A" stop-opacity="0.0289"/>
<stop offset="0.46" stop-color="#F6BC9C" stop-opacity="0.1444"/>
<stop offset="0.72" stop-color="#F7B8A0" stop-opacity="0.4356"/>
<stop offset="1" stop-color="#F9B3A5"/>
</linearGradient>
<linearGradient id="paint10_linear_10445_777" x1="56.6924" y1="4.00315" x2="37.8359" y2="14.9095" gradientUnits="userSpaceOnUse">
<stop stop-color="#F4C198"/>
<stop offset="1" stop-color="#EFA698"/>
</linearGradient>
<linearGradient id="paint11_linear_10445_777" x1="24.0923" y1="26.1804" x2="48.6335" y2="9.27039" gradientUnits="userSpaceOnUse">
<stop offset="0.127143" stop-color="#BE8378"/>
<stop offset="0.44" stop-color="#C28970"/>
<stop offset="1" stop-color="#C57B79"/>
</linearGradient>
<linearGradient id="paint12_linear_10445_777" x1="43.6683" y1="9.61923" x2="22.2282" y2="21.6636" gradientUnits="userSpaceOnUse">
<stop stop-color="#999999"/>
<stop offset="1" stop-color="#8CCFF8"/>
</linearGradient>
<linearGradient id="paint13_linear_10445_777" x1="43.8956" y1="10.3476" x2="30.8979" y2="9.66973" gradientUnits="userSpaceOnUse">
<stop stop-color="#999999"/>
<stop offset="1" stop-color="#8CCFF8"/>
</linearGradient>
<linearGradient id="paint14_linear_10445_777" x1="34.8788" y1="13.3209" x2="23.4914" y2="6.0957" gradientUnits="userSpaceOnUse">
<stop stop-color="#999999"/>
<stop offset="1" stop-color="#8CCEF8"/>
</linearGradient>
<linearGradient id="paint15_linear_10445_777" x1="44.6314" y1="31.0931" x2="43.8536" y2="38.2457" gradientUnits="userSpaceOnUse">
<stop stop-color="#999999"/>
<stop offset="1" stop-color="#8CCEF8"/>
</linearGradient>
<linearGradient id="paint16_linear_10445_777" x1="48.919" y1="33.0238" x2="26.2284" y2="56.4719" gradientUnits="userSpaceOnUse">
<stop stop-color="#999999"/>
<stop offset="1" stop-color="#8CCEF8"/>
</linearGradient>
<linearGradient id="paint17_linear_10445_777" x1="49.4999" y1="45.1418" x2="7.89917" y2="46.1119" gradientUnits="userSpaceOnUse">
<stop stop-color="#999999"/>
<stop offset="1" stop-color="#8CCEF8"/>
</linearGradient>
<linearGradient id="paint18_linear_10445_777" x1="48.919" y1="44.5415" x2="40.4448" y2="41.9536" gradientUnits="userSpaceOnUse">
<stop stop-color="#999999"/>
<stop offset="1" stop-color="#8CCFF8"/>
</linearGradient>
<linearGradient id="paint19_linear_10445_777" x1="32.062" y1="28.3648" x2="20.3335" y2="28.9069" gradientUnits="userSpaceOnUse">
<stop stop-color="#784421"/>
<stop offset="1" stop-color="#997FC8"/>
</linearGradient>
<linearGradient id="paint20_linear_10445_777" x1="45.3715" y1="30.3118" x2="42.6295" y2="29.5481" gradientUnits="userSpaceOnUse">
<stop stop-color="#784421"/>
<stop offset="1" stop-color="#987FC8"/>
</linearGradient>
<linearGradient id="paint21_linear_10445_777" x1="28.8417" y1="39.9502" x2="16.5607" y2="39.8775" gradientUnits="userSpaceOnUse">
<stop stop-color="#784421"/>
<stop offset="1" stop-color="#987EC8"/>
</linearGradient>
<linearGradient id="paint22_linear_10445_777" x1="39.2906" y1="10.576" x2="39.5966" y2="13.5451" gradientUnits="userSpaceOnUse">
<stop stop-color="#4D4D4D"/>
<stop offset="1" stop-color="#1F1F1F"/>
</linearGradient>
<linearGradient id="paint23_linear_10445_777" x1="37.869" y1="10.9342" x2="38.3659" y2="13.3373" gradientUnits="userSpaceOnUse">
<stop stop-color="#4D4D4D"/>
<stop offset="1" stop-color="#1F1F1F"/>
</linearGradient>
<linearGradient id="paint24_linear_10445_777" x1="36.9166" y1="11.8547" x2="37.3894" y2="14.1668" gradientUnits="userSpaceOnUse">
<stop stop-color="#4D4D4D"/>
<stop offset="1" stop-color="#1F1F1F"/>
</linearGradient>
<linearGradient id="paint25_linear_10445_777" x1="35.4096" y1="12.6595" x2="35.5573" y2="13.937" gradientUnits="userSpaceOnUse">
<stop stop-color="#4D4D4D"/>
<stop offset="1" stop-color="#1F1F1F"/>
</linearGradient>
<linearGradient id="paint26_linear_10445_777" x1="40.0035" y1="10.1803" x2="40.5124" y2="14.0787" gradientUnits="userSpaceOnUse">
<stop stop-color="#4D4D4D"/>
<stop offset="1" stop-color="#1F1F1F"/>
</linearGradient>
<linearGradient id="paint27_linear_10445_777" x1="41.3245" y1="10.4858" x2="41.5536" y2="13.899" gradientUnits="userSpaceOnUse">
<stop stop-color="#4D4D4D"/>
<stop offset="1" stop-color="#1F1F1F"/>
</linearGradient>
<linearGradient id="paint28_linear_10445_777" x1="41.5787" y1="11.162" x2="41.7336" y2="13.8092" gradientUnits="userSpaceOnUse">
<stop stop-color="#4C4C4C"/>
<stop offset="1" stop-color="#1F1F1F"/>
</linearGradient>
<linearGradient id="paint29_linear_10445_777" x1="42.6444" y1="11.5551" x2="42.5395" y2="13.8192" gradientUnits="userSpaceOnUse">
<stop stop-color="#4D4D4D"/>
<stop offset="1" stop-color="#1F1F1F"/>
</linearGradient>
<linearGradient id="paint30_linear_10445_777" x1="30.8838" y1="6.30703" x2="19.5205" y2="6.2043" gradientUnits="userSpaceOnUse">
<stop stop-color="#AA0000"/>
<stop offset="1" stop-color="#FF94F1"/>
</linearGradient>
<linearGradient id="paint31_linear_10445_777" x1="24.4143" y1="18.0168" x2="17.7344" y2="18.735" gradientUnits="userSpaceOnUse">
<stop stop-color="#AA0000"/>
<stop offset="1" stop-color="#FF93F1"/>
</linearGradient>
<linearGradient id="paint32_linear_10445_777" x1="33.1307" y1="5.18336" x2="26.9609" y2="3.25266" gradientUnits="userSpaceOnUse">
<stop stop-color="#999999"/>
<stop offset="1" stop-color="#8CCEF8"/>
</linearGradient>
<linearGradient id="paint33_linear_10445_777" x1="37.9844" y1="32.7188" x2="-18.7692" y2="48.1878" gradientUnits="userSpaceOnUse">
<stop stop-color="#B3B3B3"/>
<stop offset="1" stop-color="#8BCEF9"/>
</linearGradient>
<linearGradient id="paint34_linear_10445_777" x1="39.7314" y1="30.1584" x2="2.51168" y2="37.346" gradientUnits="userSpaceOnUse">
<stop stop-color="#AA0000"/>
<stop offset="1" stop-color="#FF94F1"/>
</linearGradient>
<linearGradient id="paint35_linear_10445_777" x1="50.5042" y1="36.1182" x2="60.4356" y2="40.68" gradientUnits="userSpaceOnUse">
<stop stop-color="#C1817B"/>
<stop offset="1" stop-color="#E8A89B"/>
</linearGradient>
</defs>
</svg>
